<?xml version="1.0" encoding="utf-8"?>
<!-- Generator: Adobe Illustrator 23.0.1, SVG Export Plug-In . SVG Version: 6.00 Build 0)  -->
<svg version="1.1" id="Layer_1" xmlns="http://www.w3.org/2000/svg" xmlns:xlink="http://www.w3.org/1999/xlink" x="0px" y="0px"
	 viewBox="0 0 800 800" style="enable-background:new 0 0 800 800;" xml:space="preserve">
<style type="text/css">
	.st0{fill:#E2B9A3;}
	.st1{fill:#1C1714;}
	.st2{fill:#F4F2ED;}
	.st3{fill:#3C3B3D;}
	.st4{fill:#EAEBED;}
	.st5{fill:#C01626;}
	.st6{fill:#D4D3D2;}
	.st7{fill:url(#path13-5-5-34_1_);}
	.st8{fill:#4E1E05;}
	.st9{fill:#E8B79D;}
	.st10{fill:#111111;}
	.st11{fill:#FFFFFF;}
	.st12{fill:#D29E73;}
	.st13{fill:url(#rect3838-8-8-8-8_1_);}
	.st14{fill:url(#rect3838-8-8_1_);}
	.st15{fill:url(#rect3838-8-8-8_1_);}
	.st16{fill:url(#path107-1_1_);}
	.st17{fill:url(#rect3838-8-8-8-8_3_);}
	.st18{fill:url(#rect3838-8-8_3_);}
	.st19{fill:url(#rect3838-8-8-8_3_);}
	.st20{fill:url(#path107-1_3_);}
	.st21{fill:#D9D8D7;}
	.st22{fill:#320000;}
</style>
<g id="OBJECTS">
	<g id="confused">
		<path class="st0" d="M335.4,160.6c-0.9,2.3,2.4,14.1,5.4,14.6c0.1-0.1-12.2,2.5-17.4,1.6c-5.2-0.9-7.5-2.7-7.5-2.7
			c2.6-4.5,3.9-8.3,3.9-13.2L335.4,160.6z"/>
		<path class="st1" d="M355,214.8c0,0-11.8-0.1-24.9-0.1v-0.1c-14.4,0.2-28.3,0.5-28.3,0.5c-0.1,1.3,2,10.8,7.5,14.3l1.9,42.6
			l7.6,0.2c0,0,3-27.4,6.6-38.8c0.7-1.9,1-3.5,2.5-3.6c1.7,0.1,1.7,1.5,2.7,3.6c3.7,11.3,8,38.7,8,38.7l7.6-0.3l0.4-42.6
			C352,225.6,355.1,216.1,355,214.8z"/>
		<path d="M330,214.7L330,214.7c-14.4,0.1-28.3,0.4-28.3,0.4c0,0.4,0.2,2.1,0.7,4.4h51.1c1.4-1.9,1.4-4.3,1.4-4.7
			C355,214.8,343.2,214.7,330,214.7z"/>
		<path id="rect23_3_" class="st2" d="M332.2,215.6h-8.4v4.8h8.4V215.6z"/>
		<path id="path29_3_" d="M345.5,265.1c-5.1,0-9.2,3.5-9.2,7.8c0,0.1,0,0.1,0,0.2h18.4c0-0.1,0-0.1,0-0.2
			C354.7,268.6,350.5,265.1,345.5,265.1L345.5,265.1z"/>
		<path id="path31_3_" d="M312.4,265.2c-5.1,0-9.2,3.5-9.2,7.8c0,0.1,0,0.1,0,0.2h18.4c0-0.1,0-0.1,0-0.2
			C321.6,268.7,317.5,265.2,312.4,265.2L312.4,265.2z"/>
		<path id="path161_3_" class="st3" d="M351.8,269.1c-0.7-1-1.8-1.5-4-1.8c-0.4-0.1-0.6-0.7-0.1-0.6
			C352.4,267,352,269.5,351.8,269.1L351.8,269.1z"/>
		<path id="path163_3_" class="st3" d="M319.3,269.8c-0.7-1-1.8-1.5-4-1.8c-0.4-0.1-0.6-0.7-0.1-0.6
			C319.9,267.7,319.6,270.2,319.3,269.8L319.3,269.8z"/>
		<path id="path25_3_" class="st4" d="M359.3,166.9c-0.1,1.4,2.2,43-2.7,48.7c-2.2,3-36.6,2.1-53.3,2.2c-3.7,0-5.4-5.7-5.5-10.1
			l-1.9-39.2c2.9-2.1,14.1-3.3,26.3-3.7c1.5,0-2.3,3.9,4.6,3.9c5.8,0,3.6-4,5.4-4C344.7,164.7,356.2,165.5,359.3,166.9z"/>
		<path class="st5" d="M332.2,176.9l1.5-4.8c0-0.8,0-1.6,0.1-2.4c-1.9-1.7-3.6-3.2-3.6-3.2l-3.3-0.1l-3.3,0.1c0,0-1.7,1.5-3.5,3.2
			c0.2,1.1,0.3,2.3,0.4,3.5l1.2,3.8l1.4,2.5l-2.4,25.3c0,0,5.2,9.6,6.5,11.3c1.2-1.7,6.5-11.3,6.5-11.3l-2.6-25.3L332.2,176.9z"/>
		<path class="st6" d="M325.2,164.7c-0.2,0.3-5.4,12-5.6,11.6s-6.9-9.4-6.9-9.4s3.9-4.6,4-4.6C316.7,162.4,325.2,164.7,325.2,164.7z
			"/>
		<path class="st6" d="M328.8,164.7c0.2,0.3,5.4,12,5.6,11.6s6.9-9.4,6.9-9.4s-3.9-4.6-4-4.6C337.2,162.4,328.8,164.7,328.8,164.7z"
			/>
		
			<linearGradient id="path13-5-5-34_1_" gradientUnits="userSpaceOnUse" x1="246.6116" y1="668.406" x2="317.7067" y2="637.9579" gradientTransform="matrix(0.9953 -9.670000e-02 -9.670000e-02 -0.9953 111.6349 804.4412)">
			<stop  offset="0" style="stop-color:#FFDABC"/>
			<stop  offset="0.2713" style="stop-color:#FED7B8"/>
			<stop  offset="0.5177" style="stop-color:#FACFAD"/>
			<stop  offset="0.7544" style="stop-color:#F3C19B"/>
			<stop  offset="0.9839" style="stop-color:#EAAE81"/>
			<stop  offset="1" style="stop-color:#E9AC7F"/>
		</linearGradient>
		<path id="path13-5-5-34_3_" class="st7" d="M291.5,113.7c0.3,3.7,3.2,9.1,1.7,15.4c-0.9,8.8-2.4,18.2,7.7,27.3
			c8.6,8.8,34.5,8.4,49.2-3.7c10.4-7.2,8.6-18.9,8.6-18.9c13.9,2.1,11-14.8,6.4-15.8c-3.4-0.8-5.6,1.3-5.6,1.3s0.2-18.4-3.3-23.1
			c-16.9-9.3-35.3-5.9-53.4-3.2C302.8,93.1,290.7,104.2,291.5,113.7z"/>
		<path id="polygon37-1_7_" class="st8" d="M323.6,117.4c5.9,0.2,11,1.2,14.2,3.3c1.8,0.7,2.9-2.3,0.8-3.5c-4-2.2-8.9-3.2-14.1-3.1
			C321.8,114.2,320.8,117.3,323.6,117.4z"/>
		<path id="polygon37-1_6_" class="st8" d="M308.2,120c-5.4,0.7-10,2.1-12.6,4.4c-1.6,0.9-3-2.1-1.2-3.4c3.4-2.4,7.8-3.8,12.6-4.2
			C309.4,116.7,310.7,119.7,308.2,120z"/>
		<path id="path41-1_3_" class="st9" d="M312.4,136l6,3.2c0,0-4.2,0.1-4.6-0.1c-1.3-0.9-3-3.1-3-3.1c4.2-2.7,3.6-8.1,1.9-11.7
			C315.8,128.9,315.3,132.1,312.4,136z"/>
		<path id="path33-1-5_3_" class="st9" d="M329.1,130.4c-2.4,0.2-4.5-1.6-4.7-4c-0.2-2.4,1.5-4.6,3.9-4.8c2.4-0.2,4.5,1.6,4.7,4
			C333.2,128,331.4,130.2,329.1,130.4z"/>
		<path id="path33-2_3_" d="M328.9,129.6c-2.2,0.2-4.1-1.4-4.4-3.5c-0.2-2.1,1.4-4.1,3.6-4.3c2.2-0.2,4.1,1.4,4.4,3.5
			C332.7,127.4,331.1,129.4,328.9,129.6z"/>
		<path id="path6193-7_3_" class="st10" d="M325.3,126c0.2,1.6,1.6,2.8,3.2,2.6s2.8-1.6,2.7-3.2c-0.2-1.6-1.6-2.8-3.2-2.6
			C326.3,123,325.1,124.4,325.3,126z"/>
		<path id="path49-6_3_" class="st11" d="M327.5,126c-0.6,0.1-1.2-0.4-1.3-1.1c-0.1-0.7,0.4-1.3,1-1.3c0.6-0.1,1.2,0.4,1.3,1.1
			C328.6,125.4,328.1,126,327.5,126z"/>
		<path id="path57-1_3_" class="st12" d="M365.8,123.7c1.4,3.5-0.3,6.2-2.2,7.6c-1.9,1.3-3.6,1.3-3.4-0.1c0.2-1.4,3.2-3,2.3-4.2
			c-0.9-1.2-2.2-0.3-2.6-1.3C359.2,124.1,362.8,116,365.8,123.7z"/>
		<path id="path19-2_3_" class="st8" d="M353.1,133.6c2.9,1.2,4-4.5,4-4.5s1.4-8.5,1.9-9.2s2-1.6,3.2-1.8
			c-0.5-1.6,2.3-22.5-5.5-24.3c-0.7-2.1-0.3-3-5.1-6.4c-18.1-12.7-51.7,7.7-69.8,1c5.4,32.9,33.6,17.6,53.1,13.2
			c9.4-2.1,11.9,0.6,14.3,5.3c3.9,6.9,3.2,18.6,2.4,23.5C351.2,131.7,351.8,133.1,353.1,133.6z"/>
		<path id="path33-1-4-2_3_" class="st9" d="M302.7,132.6c-2.4,0.2-4.5-1.6-4.7-4c-0.2-2.4,1.5-4.6,3.9-4.8c2.4-0.2,4.5,1.6,4.7,4
			C306.8,130.2,305,132.3,302.7,132.6z"/>
		<path id="path33-0-2_3_" d="M302.5,131.7c-2.2,0.2-4.1-1.4-4.3-3.5c-0.2-2.1,1.4-4.1,3.6-4.3c2.2-0.2,4.1,1.4,4.4,3.5
			C306.3,129.6,304.7,131.5,302.5,131.7z"/>
		<path id="path6193-9-1_3_" class="st10" d="M298.9,128.2c0.2,1.6,1.6,2.8,3.2,2.6s2.8-1.6,2.7-3.2c-0.2-1.6-1.6-2.8-3.2-2.6
			S298.7,126.6,298.9,128.2z"/>
		<path id="path49-4-6_3_" class="st11" d="M301.1,128.2c-0.6,0.1-1.2-0.4-1.3-1.1c-0.1-0.7,0.4-1.3,1-1.3c0.6-0.1,1.2,0.4,1.3,1.1
			C302.2,127.6,301.7,128.2,301.1,128.2z"/>
		<path class="st8" d="M349.4,99.7c-1.3-0.7-5.8-1.1-13.9,5.5c-7.7,6.3-21.6,5.7-20.9,5.7c0.7,0.1,5.6-3.8,5-3.5
			c-0.7,0.3-8.7,5.2-17.5,4.7c-14.9-0.9-19.3-12.9-19.3-12.9s4.2,2.9,14.2,0.6c10-2.2,15.6-7.1,30.3-7.2
			C341.9,92.5,349.4,99.7,349.4,99.7z"/>
		<g>
			
				<linearGradient id="rect3838-8-8-8-8_1_" gradientUnits="userSpaceOnUse" x1="-268.3766" y1="663.034" x2="-258.1287" y2="662.9624" gradientTransform="matrix(-0.3095 -0.6875 0.614 -0.3158 -214.935 194.1787)">
				<stop  offset="0" style="stop-color:#FFDDC0"/>
				<stop  offset="1" style="stop-color:#FFD8B6"/>
			</linearGradient>
			<path id="rect3838-8-8-8-8_4_" class="st13" d="M273.5,170.3l-3.2-7.1c-0.4-0.8,0-1.8,0.8-2.2l0.6-0.3c0.8-0.4,1.7-0.1,2.1,0.7
				l3.2,7.1c0.4,0.8,0,1.8-0.8,2.2l-0.6,0.3C274.8,171.4,273.9,171.1,273.5,170.3z"/>
			
				<linearGradient id="rect3838-8-8_1_" gradientUnits="userSpaceOnUse" x1="-340.29" y1="232.0172" x2="-340.3018" y2="237.3309" gradientTransform="matrix(-0.4936 -0.3021 0.2897 -0.489 28.0479 174.5773)">
				<stop  offset="0" style="stop-color:#FFDDC0"/>
				<stop  offset="1" style="stop-color:#FFD3AE"/>
			</linearGradient>
			<path id="rect3838-8-8_4_" class="st14" d="M265.4,165.9l-4.9-3c-0.6-0.4-0.8-1.2-0.5-1.8l0.3-0.5c0.4-0.6,1.2-0.8,1.8-0.4l4.9,3
				c0.6,0.4,0.8,1.2,0.5,1.8l-0.3,0.5C266.8,166.1,266,166.3,265.4,165.9z"/>
			
				<linearGradient id="rect3838-8-8-8_1_" gradientUnits="userSpaceOnUse" x1="-431.1717" y1="507.691" x2="-431.3631" y2="504.677" gradientTransform="matrix(-0.3487 -0.4618 0.4486 -0.3491 -111.3839 141.2346)">
				<stop  offset="0" style="stop-color:#FFDDC0"/>
				<stop  offset="1" style="stop-color:#FFD3AE"/>
			</linearGradient>
			<path id="rect3838-8-8-8_4_" class="st15" d="M266.5,167.1l-3.5-4.6c-0.4-0.6-0.3-1.4,0.2-1.9l0.5-0.4c0.6-0.4,1.4-0.3,1.8,0.2
				l3.5,4.6c0.4,0.6,0.3,1.4-0.2,1.9l-0.5,0.4C267.8,167.8,267,167.7,266.5,167.1z"/>
			
				<linearGradient id="path107-1_1_" gradientUnits="userSpaceOnUse" x1="-259.8055" y1="1338.7969" x2="-280.1965" y2="1352.5636" gradientTransform="matrix(-0.9295 0 0 0.9295 20.8938 -1082.3684)">
				<stop  offset="0" style="stop-color:#FFDDC0"/>
				<stop  offset="1" style="stop-color:#FFDDC0"/>
			</linearGradient>
			<path id="path107-1_4_" class="st16" d="M275.8,174.7c-3.6,1.3-3.3-2.8-8.7-5.5c-0.6-0.3-1.7-0.8-3.9-1.8
				c-1.5-0.9-3.5-2.4-4.8-3.1c-0.4-4.4,7.3-0.5,12.6,1.5c6.9,1,8.6,1.4,9,5.7C280.2,173.3,277.2,173.6,275.8,174.7z"/>
		</g>
		<g>
			
				<linearGradient id="rect3838-8-8-8-8_3_" gradientUnits="userSpaceOnUse" x1="-56.6918" y1="207.221" x2="-46.444" y2="207.1495" gradientTransform="matrix(0.3095 -0.6875 -0.614 -0.3158 525.2437 194.1787)">
				<stop  offset="0" style="stop-color:#FFDDC0"/>
				<stop  offset="1" style="stop-color:#FFD8B6"/>
			</linearGradient>
			<path id="rect3838-8-8-8-8_2_" class="st17" d="M382.2,168.7l3.2-7.1c0.4-0.8,0-1.8-0.8-2.2l-0.6-0.3c-0.8-0.4-1.7-0.1-2.1,0.7
				l-3.2,7.1c-0.4,0.8,0,1.8,0.8,2.2l0.6,0.3C380.9,169.8,381.8,169.5,382.2,168.7z"/>
			
				<linearGradient id="rect3838-8-8_3_" gradientUnits="userSpaceOnUse" x1="174.8035" y1="-82.9022" x2="174.7916" y2="-77.5883" gradientTransform="matrix(0.4936 -0.3021 -0.2897 -0.489 282.2608 174.5773)">
				<stop  offset="0" style="stop-color:#FFDDC0"/>
				<stop  offset="1" style="stop-color:#FFD3AE"/>
			</linearGradient>
			<path id="rect3838-8-8_2_" class="st18" d="M390.4,164.3l4.9-3c0.6-0.4,0.8-1.2,0.5-1.8l-0.3-0.5c-0.4-0.6-1.2-0.8-1.8-0.4
				l-4.9,3c-0.6,0.4-0.8,1.2-0.5,1.8l0.3,0.5C388.9,164.5,389.7,164.7,390.4,164.3z"/>
			
				<linearGradient id="rect3838-8-8-8_3_" gradientUnits="userSpaceOnUse" x1="-62.3832" y1="24.3622" x2="-62.5746" y2="21.3482" gradientTransform="matrix(0.3487 -0.4618 -0.4486 -0.3491 421.6926 141.2346)">
				<stop  offset="0" style="stop-color:#FFDDC0"/>
				<stop  offset="1" style="stop-color:#FFD3AE"/>
			</linearGradient>
			<path id="rect3838-8-8-8_2_" class="st19" d="M389.2,165.5l3.5-4.6c0.4-0.6,0.3-1.4-0.2-1.9l-0.5-0.4c-0.6-0.4-1.4-0.3-1.8,0.2
				l-3.5,4.6c-0.4,0.6-0.3,1.4,0.2,1.9l0.5,0.4C387.9,166.2,388.8,166.1,389.2,165.5z"/>
			
				<linearGradient id="path107-1_3_" gradientUnits="userSpaceOnUse" x1="111.8199" y1="1337.1233" x2="91.4289" y2="1350.8899" gradientTransform="matrix(0.9295 0 0 0.9295 289.4149 -1082.3684)">
				<stop  offset="0" style="stop-color:#FFDDC0"/>
				<stop  offset="1" style="stop-color:#FFDDC0"/>
			</linearGradient>
			<path id="path107-1_2_" class="st20" d="M380,173.1c3.6,1.3,3.3-2.8,8.7-5.5c0.6-0.3,1.7-0.8,3.9-1.8c1.5-0.9,3.5-2.4,4.8-3.1
				c0.4-4.4-7.3-0.5-12.6,1.5c-6.9,1-8.6,1.4-9,5.7C375.6,171.7,378.5,172,380,173.1z"/>
		</g>
		<path id="path103-7_2_" class="st4" d="M296,168.6l-12.1,13.6c-1.6-5.7-1.9-5.3-4.6-12.1c0,0-3,2.9-6.7,3
			c0.5,4.8,3.9,22.4,11.1,21.8c7.4-0.7,10.5-7.7,13.8-10.7L296,168.6z"/>
		<path id="path5001_2_" class="st21" d="M280.1,169.3c-0.4,0.2-9,4.2-9,4.2s1.3,3.6,1.5,3.5s8.9-3.5,8.9-3.5L280.1,169.3z"/>
		<path id="path103-7_1_" class="st4" d="M359.3,166.9l12.1,13.6c1.6-5.7,1.9-5.3,4.6-12.1c0,0,3,2.9,6.7,3
			c-0.5,4.8-3.9,22.4-11.1,21.8c-7.4-0.7-10.5-7.7-13.8-10.7L359.3,166.9z"/>
		<path id="path5001_1_" class="st6" d="M375.2,167.7c0.4,0.2,9,4.2,9,4.2s-1.3,3.6-1.5,3.5s-8.9-3.5-8.9-3.5L375.2,167.7z"/>
		<path id="path205_1_" class="st22" d="M326.5,151.8c-1.4-2.8-14.3-5.1-14.7-1.7C311.4,142.8,325.4,144.3,326.5,151.8z"/>
		<path id="path205-2_1_" class="st9" d="M316.4,147.9c-3.1,0-4.4,0.8-4.6,2.2c0.6-3.2,12.8-0.9,14.7,1.8
			C325.2,149.1,320,148,316.4,147.9L316.4,147.9z"/>
	</g>
</g>
</svg>
