<?xml version="1.0" encoding="utf-8"?>
<!-- Generator: Adobe Illustrator 23.0.1, SVG Export Plug-In . SVG Version: 6.00 Build 0)  -->
<svg version="1.1" id="Layer_1" xmlns="http://www.w3.org/2000/svg" xmlns:xlink="http://www.w3.org/1999/xlink" x="0px" y="0px"
	 viewBox="0 0 800 800" style="enable-background:new 0 0 800 800;" xml:space="preserve">
<style type="text/css">
	.st0{fill:#E2B9A3;}
	.st1{fill:#1C1714;}
	.st2{fill:#F4F2ED;}
	.st3{fill:#3C3B3D;}
	.st4{fill:#EAEBED;}
	.st5{fill:#C01626;}
	.st6{fill:#D4D3D2;}
	.st7{fill:url(#path13-5-5-34_1_);}
	.st8{fill:#4E1E05;}
	.st9{fill:#E8B79D;}
	.st10{fill:#111111;}
	.st11{fill:#FFFFFF;}
	.st12{fill:#D29E73;}
	.st13{fill:#320000;}
	.st14{fill:url(#path307_1_);}
	.st15{fill:url(#rect3838-4-8_1_);}
	.st16{fill:url(#rect3838-4-8-5_1_);}
	.st17{fill:url(#rect3838-4-8-3_1_);}
	.st18{fill:url(#rect3838-4-8-3-8_1_);}
	.st19{fill:url(#rect3838-8-7_1_);}
	.st20{fill:url(#path307_2_);}
	.st21{fill:url(#rect3838-4-8_2_);}
	.st22{fill:url(#rect3838-4-8-5_2_);}
	.st23{fill:url(#rect3838-4-8-3_2_);}
	.st24{fill:url(#rect3838-4-8-3-8_2_);}
	.st25{fill:url(#rect3838-8-7_2_);}
</style>
<g id="OBJECTS">
	<g id="extremely_happy">
		<path class="st0" d="M489.6,162.4c-0.9,2.3,2.4,14.1,5.4,14.6c0.1-0.1-12.2,2.5-17.4,1.6c-5.2-0.9-7.5-2.7-7.5-2.7
			c2.6-4.5,3.9-8.3,3.9-13.2L489.6,162.4z"/>
		<path class="st1" d="M509.1,216.6c0,0-11.8-0.1-24.9-0.1v-0.1c-14.4,0.2-28.3,0.5-28.3,0.5c-0.1,1.3,2,10.8,7.5,14.3l1.9,42.6
			l7.6,0.2c0,0,3-27.4,6.6-38.8c0.7-1.9,1-3.5,2.5-3.6c1.7,0.1,1.7,1.5,2.7,3.6c3.7,11.3,8,38.7,8,38.7l7.6-0.3l0.4-42.6
			C506.1,227.5,509.2,217.9,509.1,216.6z"/>
		<path d="M484.1,216.5L484.1,216.5c-14.4,0.1-28.3,0.4-28.3,0.4c0,0.4,0.2,2.1,0.7,4.4h51.1c1.4-1.9,1.4-4.3,1.4-4.7
			C509.1,216.6,497.3,216.5,484.1,216.5z"/>
		<path id="rect23_4_" class="st2" d="M486.4,217.4H478v4.8h8.4V217.4z"/>
		<path id="path29_4_" d="M499.6,266.9c-5.1,0-9.2,3.5-9.2,7.8c0,0.1,0,0.1,0,0.2h18.4c0-0.1,0-0.1,0-0.2
			C508.8,270.4,504.7,266.9,499.6,266.9L499.6,266.9z"/>
		<path id="path31_4_" d="M466.5,267.1c-5.1,0-9.2,3.5-9.2,7.8c0,0.1,0,0.1,0,0.2h18.4c0-0.1,0-0.1,0-0.2
			C475.7,270.5,471.6,267.1,466.5,267.1L466.5,267.1z"/>
		<path id="path161_4_" class="st3" d="M505.9,270.9c-0.7-1-1.8-1.5-4-1.8c-0.4-0.1-0.6-0.7-0.1-0.6
			C506.5,268.8,506.1,271.3,505.9,270.9L505.9,270.9z"/>
		<path id="path163_4_" class="st3" d="M473.4,271.7c-0.7-1-1.8-1.5-4-1.8c-0.4-0.1-0.6-0.7-0.1-0.6
			C474,269.5,473.7,272,473.4,271.7L473.4,271.7z"/>
		<path id="path25_4_" class="st4" d="M513.4,168.8c-0.1,1.4,2.2,43-2.7,48.7c-2.2,3-36.6,2.1-53.3,2.2c-3.7,0-5.4-5.7-5.5-10.1
			l-1.9-39.2c2.9-2.1,14.1-3.3,26.3-3.7c1.5,0-2.3,3.9,4.6,3.9c5.8,0,3.6-4,5.4-4C498.8,166.6,510.3,167.4,513.4,168.8z"/>
		<path class="st5" d="M486.3,178.8l1.5-4.8c0-0.8,0-1.6,0.1-2.4c-1.9-1.7-3.6-3.2-3.6-3.2l-3.3-0.1l-3.3,0.1c0,0-1.7,1.5-3.5,3.2
			c0.2,1.1,0.3,2.3,0.4,3.5l1.2,3.8l1.4,2.5l-2.4,25.3c0,0,5.2,9.6,6.5,11.3c1.2-1.7,6.5-11.3,6.5-11.3l-2.6-25.3L486.3,178.8z"/>
		<path class="st6" d="M479.3,166.6c-0.2,0.3-5.4,12-5.6,11.6s-6.9-9.4-6.9-9.4s3.9-4.6,4-4.6C470.8,164.2,479.3,166.6,479.3,166.6z
			"/>
		<path class="st6" d="M482.9,166.6c0.2,0.3,5.4,12,5.6,11.6s6.9-9.4,6.9-9.4s-3.9-4.6-4-4.6C491.4,164.2,482.9,166.6,482.9,166.6z"
			/>
		
			<linearGradient id="path13-5-5-34_1_" gradientUnits="userSpaceOnUse" x1="497.2854" y1="721.9592" x2="576.5197" y2="681.9739" gradientTransform="matrix(0.9937 0.1121 0.1121 -0.9937 -126.9985 767.6087)">
			<stop  offset="0" style="stop-color:#FFDABC"/>
			<stop  offset="0.2713" style="stop-color:#FED7B8"/>
			<stop  offset="0.5177" style="stop-color:#FACFAD"/>
			<stop  offset="0.7544" style="stop-color:#F3C19B"/>
			<stop  offset="0.9839" style="stop-color:#EAAE81"/>
			<stop  offset="1" style="stop-color:#E9AC7F"/>
		</linearGradient>
		<path id="path13-5-5-34_4_" class="st7" d="M451.2,109.4c-0.5,3.6,1.3,9.6-1.5,15.4c-2.7,8.4-6.2,17.3,1.9,28.4
			c6.6,10.4,32.1,15.4,48.9,6.6c11.6-4.9,12.4-16.7,12.4-16.7c13.1,5,13.8-12.2,9.5-14.1c-3.2-1.4-5.8,0.1-5.8,0.1s4-17.9,1.6-23.3
			c-14.6-12.7-33.3-13.2-51.6-14.2C466.5,91.5,452.4,99.9,451.2,109.4z"/>
		<path id="polygon37-1_9_" class="st8" d="M477.6,124.4c6.2-1.3,11.8-1.6,15.8-0.4c2.1,0.2,2.4-3-0.2-3.6
			c-4.8-1.1-10.2-0.8-15.6,0.6C474.8,121.8,474.6,125.1,477.6,124.4z"/>
		<path id="polygon37-1_8_" class="st8" d="M464.3,123.2c-4.5-2.9-8.8-4.7-12.2-4.5c-1.7-0.3-1-3.5,1.2-3.4c4.1,0.2,8.2,2,12,4.7
			C467.3,121.4,466.4,124.6,464.3,123.2z"/>
		<path id="path41-1_4_" class="st9" d="M467,135.5l5.2,4.3c0,0-4.1-0.8-4.5-1c-1-1.2-2.3-3.6-2.3-3.6c4.7-1.8,5.2-7.2,4.3-11.1
			C471.8,129.3,470.7,132.3,467,135.5z"/>
		<path id="path33-1-5_4_" class="st9" d="M484.5,133.5c-2.4-0.3-4.1-2.5-3.8-4.9c0.3-2.4,2.4-4.2,4.8-3.9c2.4,0.3,4.1,2.5,3.8,4.9
			C489,132,486.9,133.8,484.5,133.5z"/>
		<path id="path33-2_4_" d="M484.5,132.7c-2.2-0.2-3.8-2.2-3.5-4.3c0.2-2.1,2.2-3.7,4.4-3.4c2.2,0.2,3.8,2.2,3.5,4.3
			C488.7,131.4,486.7,132.9,484.5,132.7z"/>
		<path id="path6193-7_4_" class="st10" d="M481.7,128.5c-0.2,1.6,1,3,2.6,3.2s3.1-1,3.3-2.5c0.2-1.6-1-3-2.6-3.2
			C483.4,125.7,481.9,126.9,481.7,128.5z"/>
		<path id="path49-6_4_" class="st11" d="M483.9,128.9c-0.6-0.1-1.1-0.7-1-1.4c0.1-0.7,0.7-1.2,1.3-1.1c0.6,0.1,1.1,0.7,1,1.4
			C485.1,128.5,484.5,129,483.9,128.9z"/>
		<path id="path57-1_4_" class="st12" d="M521.9,134.6c0.6,3.7-1.6,6.1-3.7,7c-2.1,0.9-3.8,0.6-3.3-0.8c0.5-1.3,3.8-2.3,3.1-3.6
			c-0.7-1.4-2-0.8-2.3-1.8C515.2,133.6,520.5,126.5,521.9,134.6z"/>
		<path id="path19-2_4_" class="st8" d="M507.3,141.7c2.5,1.8,4.8-3.6,4.8-3.6s3.1-8,3.8-8.6c0.6-0.6,2.3-1.1,3.5-1.1
			c-0.2-1.7,6.9-21.6-0.4-25c-0.2-2.2,0.3-3-3.7-7.3c-15.1-16.1-52.2-3.2-68.5-13.6c-1.5,33.3,29.2,24.2,49.2,24
			c9.6-0.1,11.5,3,12.8,8.2c2.4,7.6-0.7,18.9-2.6,23.5C505.9,139.4,506.2,140.9,507.3,141.7z"/>
		<path id="path33-1-4-2_4_" class="st9" d="M458.2,130.2c-2.4-0.3-4.1-2.5-3.8-4.9c0.3-2.4,2.4-4.2,4.8-3.9
			c2.4,0.3,4.1,2.5,3.8,4.9C462.8,128.7,460.6,130.4,458.2,130.2z"/>
		<path id="path33-0-2_4_" d="M458.3,129.3c-2.2-0.2-3.8-2.2-3.5-4.3c0.2-2.1,2.2-3.7,4.4-3.4c2.2,0.2,3.8,2.2,3.5,4.3
			C462.4,128,460.4,129.6,458.3,129.3z"/>
		<path id="path6193-9-1_4_" class="st10" d="M455.5,125.1c-0.2,1.6,1,3,2.6,3.2s3.1-1,3.3-2.5c0.2-1.6-1-3-2.6-3.2
			C457.1,122.4,455.6,123.5,455.5,125.1z"/>
		<path id="path49-4-6_4_" class="st11" d="M457.6,125.6c-0.6-0.1-1.1-0.7-1-1.4c0.1-0.7,0.7-1.2,1.3-1.1c0.6,0.1,1.1,0.7,1,1.4
			C458.8,125.1,458.2,125.6,457.6,125.6z"/>
		<path class="st8" d="M510.8,107.7c-1.1-1-5.5-2.3-14.7,2.5c-8.9,4.6-22.3,1-21.7,1.3c0.7,0.2,6.3-2.6,5.6-2.4
			c-0.7,0.2-9.6,3.3-18.1,1c-14.4-3.9-16.2-16.7-16.2-16.7s3.5,3.7,13.7,3.5c10.2-0.1,16.7-3.7,31.1-0.8
			C504.9,99.1,510.8,107.7,510.8,107.7z"/>
		<path id="path305_1_" class="st9" d="M481.1,144.6c-3.8,12-23.4,9.2-21.6-2.7C465.5,146.7,471.4,146.1,481.1,144.6z"/>
		<path id="path305-9_1_" class="st13" d="M459.5,141.9c0,0.3-0.1,0.6-0.1,0.9c0.7,10.4,17,12.4,21.6,1.8
			C471.6,144.2,465.7,144.9,459.5,141.9L459.5,141.9z"/>
		<g>
			
				<linearGradient id="path307_1_" gradientUnits="userSpaceOnUse" x1="-88.2269" y1="1030.715" x2="-89.9056" y2="1035.6567" gradientTransform="matrix(-0.9984 -5.720000e-02 -5.720000e-02 0.9984 389.86 -916.0947)">
				<stop  offset="0" style="stop-color:#FFD4B0"/>
				<stop  offset="1" style="stop-color:#FFC69F"/>
			</linearGradient>
			<path id="path307_4_" class="st14" d="M425.1,127.9c0,0,3.3-2.9,3.8-4.3c0.5-1.5-0.1-4.4-0.9-4.8s0.9-1.4-2.5-3.9
				c-1.4-1-3-1.9-4.5-0.9c-0.5,0.3-1.4,0.1-2.5,0.3c-0.7,0.2-1.2,0.8-1.9,1c-1,0.4-1.6,1-2.2,1.2s-1.3,0.6-1.7,0.9
				c-1.8,1-2.5,2.3-1.7,5c2.3,2.9,2.4,4.3,7.5,7.5C422.7,130.1,425.1,127.9,425.1,127.9L425.1,127.9z"/>
			
				<linearGradient id="rect3838-4-8_1_" gradientUnits="userSpaceOnUse" x1="1281.998" y1="522.2264" x2="1282.1626" y2="518.3757" gradientTransform="matrix(0.5487 0.3522 0.3846 -0.4983 -479.9931 -75.592)">
				<stop  offset="0" style="stop-color:#FFD4B0"/>
				<stop  offset="1" style="stop-color:#FFC294"/>
			</linearGradient>
			<path id="rect3838-4-8_4_" class="st15" d="M419.6,115l5.2,2.6c0,0-0.4,3.5,0.7,3.8c0.8,0.3,2.1,0.2,2.1-0.7l0.2-2.9
				c0.1-0.9,0.2-1.7-0.5-2.1l-4.8-2.9c-0.7-0.4-2.1-1-2.7-0.4l-0.6,0.6C418.5,113.8,418.8,114.7,419.6,115L419.6,115z"/>
			
				<linearGradient id="rect3838-4-8-5_1_" gradientUnits="userSpaceOnUse" x1="1282.3074" y1="523.6514" x2="1282.5634" y2="520.095" gradientTransform="matrix(0.5487 0.3522 0.3846 -0.4983 -483.1254 -73.8293)">
				<stop  offset="0" style="stop-color:#FFD4B0"/>
				<stop  offset="1" style="stop-color:#FFC294"/>
			</linearGradient>
			<path id="rect3838-4-8-5_4_" class="st16" d="M417.1,116.4l5.2,2.6c0,0-0.4,3.5,0.7,3.8c0.8,0.3,2.1,0.2,2.1-0.7l0.2-2.9
				c0.1-0.9,0.2-1.7-0.5-2.1l-4.8-2.9c-0.7-0.4-2.1-1-2.7-0.4l-0.6,0.6C416,115.1,416.4,116,417.1,116.4L417.1,116.4z"/>
			
				<linearGradient id="rect3838-4-8-3_1_" gradientUnits="userSpaceOnUse" x1="1282.9604" y1="524.9819" x2="1283.1343" y2="521.5569" gradientTransform="matrix(0.5487 0.3522 0.3846 -0.4983 -486.5476 -71.905)">
				<stop  offset="0" style="stop-color:#FFD4B0"/>
				<stop  offset="1" style="stop-color:#FFC294"/>
			</linearGradient>
			<path id="rect3838-4-8-3_4_" class="st17" d="M414.5,117.9l5.2,2.6c0,0-0.4,3.5,0.7,3.8c0.8,0.3,2.1,0.2,2.1-0.7l0.2-2.9
				c0.1-0.9,0.2-1.7-0.5-2.1l-4.8-2.9c-0.7-0.4-2.1-1-2.7-0.4L414,116C413.4,116.6,413.7,117.5,414.5,117.9L414.5,117.9z"/>
			
				<linearGradient id="rect3838-4-8-3-8_1_" gradientUnits="userSpaceOnUse" x1="1284.0635" y1="520.6542" x2="1282.4543" y2="528.3599" gradientTransform="matrix(0.5487 0.3522 0.3846 -0.4983 -489.8382 -69.9738)">
				<stop  offset="0" style="stop-color:#FFD4B0"/>
				<stop  offset="1" style="stop-color:#FFC294"/>
			</linearGradient>
			<path id="rect3838-4-8-3-8_4_" class="st18" d="M416.8,122.3c0,0,0,3.2,1,3.5c0.8,0.3,2.1,0.2,2.1-0.7l0.2-2.9
				c0.1-0.9,0.2-1.7-0.5-2.1l-4.8-2.9c-1.6-0.6-2.2-0.9-3.3,0.3c-0.6,0.6-1.3,3-0.1,3.7C412.5,122,414.3,122.3,416.8,122.3z"/>
			
				<linearGradient id="rect3838-8-7_1_" gradientUnits="userSpaceOnUse" x1="125.7385" y1="1434.1489" x2="126.2666" y2="1430.1298" gradientTransform="matrix(-0.529 0.4867 0.4796 0.5783 -195.4034 -767.9372)">
				<stop  offset="0" style="stop-color:#FFD4B0"/>
				<stop  offset="1" style="stop-color:#FFC294"/>
			</linearGradient>
			<path id="rect3838-8-7_4_" class="st19" d="M426.7,118.5l-4.6,4.5c-0.7,0.7-0.8,1.9-0.2,2.7l0.5,0.6c0.7,0.8,1.7,0.8,2.5,0.2
				l4.7-3.7c0.8-0.6,0.7-2.7,0-3.5l-0.5-0.6C428.5,117.9,427.4,117.8,426.7,118.5L426.7,118.5z"/>
		</g>
		<path id="path255_4_" class="st4" d="M463.1,168.4c0,0-18.8-11.8-26.3-21.1c-3.8-4.7-10.5-20.8-10.5-20.8s-7.2,0.5-9.8,1.6
			c0.9,3.8,2.3,17.7,11.2,27.8c4.8,5.5,23.5,21.3,23.5,21.2L463.1,168.4z"/>
		<path id="path5001-0-3_4_" class="st6" d="M427.5,126.3c-5.2,0.1-8.4,0.7-13.1,2.1l2.6,6.2c0.2,0,11.4-3.4,11.4-3.4L427.5,126.3z"
			/>
		<g>
			
				<linearGradient id="path307_2_" gradientUnits="userSpaceOnUse" x1="271.2894" y1="1053.4346" x2="269.6107" y2="1058.3763" gradientTransform="matrix(0.9984 -5.720000e-02 5.720000e-02 0.9984 212.2219 -916.0947)">
				<stop  offset="0" style="stop-color:#FFD4B0"/>
				<stop  offset="1" style="stop-color:#FFC69F"/>
			</linearGradient>
			<path id="path307_3_" class="st20" d="M537.2,130.1c0,0-3.3-2.9-3.8-4.3c-0.5-1.5,0.1-4.4,0.9-4.8c0.8-0.4-0.9-1.4,2.5-3.9
				c1.4-1,3-1.9,4.5-0.9c0.5,0.3,1.4,0.1,2.5,0.3c0.7,0.2,1.2,0.8,1.9,1c1,0.4,1.6,1,2.2,1.2c0.6,0.2,1.3,0.6,1.7,0.9
				c1.8,1,2.5,2.3,1.7,5c-2.3,2.9-2.4,4.3-7.5,7.5C539.6,132.2,537.2,130.1,537.2,130.1L537.2,130.1z"/>
			
				<linearGradient id="rect3838-4-8_2_" gradientUnits="userSpaceOnUse" x1="844.9261" y1="209.0792" x2="845.0907" y2="205.2285" gradientTransform="matrix(-0.5487 0.3522 -0.3846 -0.4983 1082.075 -75.592)">
				<stop  offset="0" style="stop-color:#FFD4B0"/>
				<stop  offset="1" style="stop-color:#FFC294"/>
			</linearGradient>
			<path id="rect3838-4-8_3_" class="st21" d="M542.8,117.2l-5.2,2.6c0,0,0.4,3.5-0.7,3.8c-0.8,0.3-2.1,0.2-2.1-0.7l-0.2-2.9
				c-0.1-0.9-0.2-1.7,0.5-2.1l4.8-2.9c0.7-0.4,2.1-1,2.7-0.4l0.6,0.6C543.9,115.9,543.5,116.8,542.8,117.2L542.8,117.2z"/>
			
				<linearGradient id="rect3838-4-8-5_2_" gradientUnits="userSpaceOnUse" x1="845.2917" y1="210.507" x2="845.5477" y2="206.9505" gradientTransform="matrix(-0.5487 0.3522 -0.3846 -0.4983 1085.2073 -73.8293)">
				<stop  offset="0" style="stop-color:#FFD4B0"/>
				<stop  offset="1" style="stop-color:#FFC294"/>
			</linearGradient>
			<path id="rect3838-4-8-5_3_" class="st22" d="M545.2,118.5l-5.2,2.6c0,0,0.4,3.5-0.7,3.8c-0.8,0.3-2.1,0.2-2.1-0.7l-0.2-2.9
				c-0.1-0.9-0.2-1.7,0.5-2.1l4.8-2.9c0.7-0.4,2.1-1,2.7-0.4l0.6,0.6C546.3,117.3,545.9,118.1,545.2,118.5L545.2,118.5z"/>
			
				<linearGradient id="rect3838-4-8-3_2_" gradientUnits="userSpaceOnUse" x1="845.949" y1="211.8374" x2="846.1229" y2="208.4124" gradientTransform="matrix(-0.5487 0.3522 -0.3846 -0.4983 1088.6295 -71.905)">
				<stop  offset="0" style="stop-color:#FFD4B0"/>
				<stop  offset="1" style="stop-color:#FFC294"/>
			</linearGradient>
			<path id="rect3838-4-8-3_3_" class="st23" d="M547.8,120l-5.2,2.6c0,0,0.4,3.5-0.7,3.8c-0.8,0.3-2.1,0.2-2.1-0.7l-0.2-2.9
				c-0.1-0.9-0.2-1.7,0.5-2.1l4.8-2.9c0.7-0.4,2.1-1,2.7-0.4l0.6,0.6C548.9,118.7,548.6,119.6,547.8,120L547.8,120z"/>
			
				<linearGradient id="rect3838-4-8-3-8_2_" gradientUnits="userSpaceOnUse" x1="847.0431" y1="207.5113" x2="845.4341" y2="215.2169" gradientTransform="matrix(-0.5487 0.3522 -0.3846 -0.4983 1091.9202 -69.9738)">
				<stop  offset="0" style="stop-color:#FFD4B0"/>
				<stop  offset="1" style="stop-color:#FFC294"/>
			</linearGradient>
			<path id="rect3838-4-8-3-8_3_" class="st24" d="M545.5,124.4c0,0,0,3.2-1,3.5c-0.8,0.3-2.1,0.2-2.1-0.7l-0.2-2.9
				c-0.1-0.9-0.2-1.7,0.5-2.1l4.8-2.9c1.6-0.6,2.2-0.9,3.3,0.3c0.6,0.6,1.3,3,0.1,3.7C549.8,124.1,548,124.5,545.5,124.4z"/>
			
				<linearGradient id="rect3838-8-7_2_" gradientUnits="userSpaceOnUse" x1="513.9227" y1="1111.1565" x2="514.4508" y2="1107.1373" gradientTransform="matrix(0.529 0.4867 -0.4796 0.5783 797.4852 -767.9372)">
				<stop  offset="0" style="stop-color:#FFD4B0"/>
				<stop  offset="1" style="stop-color:#FFC294"/>
			</linearGradient>
			<path id="rect3838-8-7_3_" class="st25" d="M535.7,120.6l4.6,4.5c0.7,0.7,0.8,1.9,0.2,2.7l-0.5,0.6c-0.7,0.8-1.7,0.8-2.5,0.2
				l-4.7-3.7c-0.8-0.6-0.7-2.7,0-3.5l0.5-0.6C533.8,120,534.9,119.9,535.7,120.6L535.7,120.6z"/>
		</g>
		<path id="path255_3_" class="st4" d="M499.2,170.5c0,0,18.8-11.8,26.3-21.1c3.8-4.7,10.5-20.8,10.5-20.8s7.2,0.5,9.8,1.6
			c-0.9,3.8-2.3,17.7-11.2,27.8c-4.8,5.5-23.5,21.3-23.5,21.2L499.2,170.5z"/>
		<path id="path5001-0-3_3_" class="st6" d="M534.8,128.4c5.2,0.1,8.4,0.7,13.1,2.1l-2.6,6.2c-0.2,0-11.4-3.4-11.4-3.4L534.8,128.4z
			"/>
		<path class="st4" d="M479.8,144.5c-7.7-0.2-14.2,0.1-19.6-2.3c-0.1,0.9-0.1,2,0.3,2.4c1.1,1.1,11.6,2.9,17.8,3
			C479,147.3,479.6,145.4,479.8,144.5z"/>
	</g>
</g>
</svg>
