<?xml version="1.0" encoding="utf-8"?>
<!-- Generator: Adobe Illustrator 23.0.1, SVG Export Plug-In . SVG Version: 6.00 Build 0)  -->
<svg version="1.1" id="Layer_1" xmlns="http://www.w3.org/2000/svg" xmlns:xlink="http://www.w3.org/1999/xlink" x="0px" y="0px"
	 viewBox="0 0 800 800" style="enable-background:new 0 0 800 800;" xml:space="preserve">
<style type="text/css">
	.st0{fill:#E2B9A3;}
	.st1{fill:#1C1714;}
	.st2{fill:#F4F2ED;}
	.st3{fill:#3C3B3D;}
	.st4{fill:#EAEBED;}
	.st5{fill:#C01626;}
	.st6{fill:#D4D3D2;}
	.st7{fill:url(#path13-5-5-34_1_);}
	.st8{fill:#D29E73;}
	.st9{fill:#4E1E05;}
	.st10{fill:#E8B79D;}
	.st11{fill:#111111;}
	.st12{fill:#FFFFFF;}
	.st13{fill:url(#path11_1_);}
	.st14{fill:#F7C2A0;}
	.st15{fill:url(#path11_4_);}
	.st16{fill:#320000;}
	.st17{fill:#D0CFCE;}
</style>
<g id="OBJECTS">
	<g id="extremely_unhappy">
		<path class="st0" d="M179.9,396.9c-0.9,2.3,2.4,14.1,5.4,14.6c0.1-0.1-12.2,2.5-17.4,1.6s-7.5-2.7-7.5-2.7
			c2.6-4.5,3.9-8.3,3.9-13.2L179.9,396.9z"/>
		<path class="st1" d="M199.4,451.2c0,0-11.8-0.1-24.9-0.1V451c-14.4,0.2-28.3,0.5-28.3,0.5c-0.1,1.3,2,10.8,7.5,14.3l1.9,42.6
			l7.6,0.2c0,0,3-27.4,6.6-38.8c0.7-1.9,1-3.5,2.5-3.6c1.7,0.1,1.7,1.5,2.7,3.6c3.7,11.3,8,38.7,8,38.7l7.6-0.3l0.4-42.6
			C196.4,462,199.5,452.5,199.4,451.2z"/>
		<path d="M174.5,451.1L174.5,451.1c-14.4,0.1-28.3,0.4-28.3,0.4c0,0.4,0.2,2.1,0.7,4.4H198c1.4-1.9,1.4-4.3,1.4-4.7
			C199.4,451.2,187.6,451.1,174.5,451.1z"/>
		<path id="rect23_6_" class="st2" d="M176.7,452h-8.4v4.8h8.4V452z"/>
		<path id="path29_6_" d="M189.9,501.5c-5.1,0-9.2,3.5-9.2,7.8c0,0.1,0,0.1,0,0.2h18.4c0-0.1,0-0.1,0-0.2
			C199.1,505,195,501.5,189.9,501.5L189.9,501.5z"/>
		<path id="path31_6_" d="M156.9,501.6c-5.1,0-9.2,3.5-9.2,7.8c0,0.1,0,0.1,0,0.2h18.4c0-0.1,0-0.1,0-0.2
			C166.1,505.1,161.9,501.6,156.9,501.6L156.9,501.6z"/>
		<path id="path161_6_" class="st3" d="M196.2,505.5c-0.7-1-1.8-1.5-4-1.8c-0.4-0.1-0.6-0.7-0.1-0.6
			C196.8,503.4,196.5,505.8,196.2,505.5L196.2,505.5z"/>
		<path id="path163_6_" class="st3" d="M163.8,506.2c-0.7-1-1.8-1.5-4-1.8c-0.4-0.1-0.6-0.7-0.1-0.6
			C164.4,504.1,164,506.6,163.8,506.2L163.8,506.2z"/>
		<path id="path25_6_" class="st4" d="M203.7,403.3c-0.1,1.4,2.2,43-2.7,48.7c-2.2,3-36.6,2.1-53.3,2.2c-3.7,0-5.4-5.7-5.5-10.1
			l-1.9-39.2c2.9-2.1,14.1-3.3,26.3-3.7c1.5,0-2.3,3.9,4.6,3.9c5.8,0,3.6-4,5.4-4C189.2,401.1,200.6,401.9,203.7,403.3z"/>
		<path class="st5" d="M176.7,413.3l1.5-4.8c0-0.8,0-1.6,0.1-2.4c-1.9-1.7-3.6-3.2-3.6-3.2l-3.3-0.1l-3.3,0.1c0,0-1.7,1.5-3.5,3.2
			c0.2,1.1,0.3,2.3,0.4,3.5l1.2,3.8l1.4,2.5l-2.4,25.3c0,0,5.2,9.6,6.5,11.3c1.2-1.7,6.5-11.3,6.5-11.3l-2.6-25.3L176.7,413.3z"/>
		<path class="st6" d="M169.6,401.1c-0.2,0.3-5.4,12-5.6,11.6s-6.9-9.4-6.9-9.4s3.9-4.6,4-4.6L169.6,401.1z"/>
		<path class="st6" d="M173.2,401.1c0.2,0.3,5.4,12,5.6,11.6s6.9-9.4,6.9-9.4s-3.9-4.6-4-4.6L173.2,401.1z"/>
		
			<linearGradient id="path13-5-5-34_1_" gradientUnits="userSpaceOnUse" x1="151.5143" y1="450.2493" x2="219.8665" y2="414.0639" gradientTransform="matrix(1 0 0 -1 0 802)">
			<stop  offset="0" style="stop-color:#FFDABC"/>
			<stop  offset="0.2713" style="stop-color:#FED7B8"/>
			<stop  offset="0.5177" style="stop-color:#FACFAD"/>
			<stop  offset="0.7544" style="stop-color:#F3C19B"/>
			<stop  offset="0.9839" style="stop-color:#EAAE81"/>
			<stop  offset="1" style="stop-color:#E9AC7F"/>
		</linearGradient>
		<path id="path13-5-5-34_6_" class="st7" d="M139.9,347.7c-0.1,3.7,2.3,9.4,0.2,15.5c-1.7,8.6-4.2,17.9,5,28
			c7.7,9.6,33.6,11.7,49.3,1.1c11-6.2,10.4-18,10.4-18c13.6,3.5,12.4-13.6,7.9-15.1c-3.3-1.1-5.7,0.8-5.7,0.8s2-18.2-1-23.3
			c-16-10.9-34.6-9.3-52.9-8.3C153.1,328.3,140.1,338.1,139.9,347.7z"/>
		<path id="path57-1_6_" class="st8" d="M213,364.8c1,3.6-0.9,6.2-2.9,7.3c-2,1.2-3.7,1-3.4-0.4s3.5-2.7,2.7-4s-2.1-0.5-2.5-1.6
			C206.3,364.6,210.7,356.9,213,364.8z"/>
		<path id="path19-2_6_" class="st9" d="M199.3,373.5c2.7,1.5,4.4-4.1,4.4-4.1s2.2-8.3,2.8-9s2.2-1.4,3.3-1.5
			c-0.3-1.7,4.5-22.2-3.1-24.8c-0.5-2.1,0-3.1-4.5-6.9c-16.8-14.3-52.2,2.7-69.6-5.8c2.2,33.3,31.8,20.8,51.6,18.3
			c9.6-1.2,11.8,1.7,13.7,6.7c3.3,7.3,1.4,18.9,0.1,23.6C197.6,371.4,198.1,372.8,199.3,373.5z"/>
		<path class="st9" d="M198.9,339.3c-1.2-0.8-5.7-1.7-14.4,4.1c-8.3,5.6-22.1,3.5-21.4,3.7s6-3.3,5.3-3s-9.2,4.4-17.9,3
			c-14.7-2.3-18-14.7-18-14.7s3.9,3.3,14.1,2c10.1-1.3,16.2-5.5,30.8-4.2C192.1,331.4,198.9,339.3,198.9,339.3z"/>
		<path id="path41-1_7_" class="st10" d="M159.7,371.6l5.6,3.7c0,0-4.2-0.3-4.6-0.5c-1.2-1.1-2.7-3.4-2.7-3.4
			c4.5-2.3,4.4-7.7,3-11.5C163.8,364.8,163,367.9,159.7,371.6z"/>
		<path id="path33-1-5_7_" class="st10" d="M176.8,367.6c-2.4,0-4.3-2-4.3-4.4s1.9-4.4,4.3-4.4c2.4,0,4.3,2,4.3,4.4
			C181.2,365.6,179.2,367.6,176.8,367.6z"/>
		<path id="path33-2_7_" d="M176.7,366.8c-2.2,0-4-1.8-4-3.9s1.8-3.9,4-3.9s4,1.8,4,3.9S178.9,366.8,176.7,366.8z"/>
		<path id="path6193-7_7_" class="st11" d="M173.5,362.9c0,1.6,1.3,2.9,3,2.9c1.6,0,3-1.3,3-2.9s-1.3-2.9-3-2.9
			S173.5,361.3,173.5,362.9z"/>
		<path id="path49-6_7_" class="st12" d="M175.7,363.1c-0.6,0-1.2-0.6-1.2-1.2c0-0.7,0.5-1.2,1.2-1.2c0.6,0,1.2,0.6,1.2,1.2
			C176.8,362.6,176.3,363.1,175.7,363.1z"/>
		<path id="path33-1-4-2_7_" class="st10" d="M150.3,367.2c-2.4,0-4.3-2-4.3-4.4s1.9-4.4,4.3-4.4c2.4,0,4.3,2,4.3,4.4
			C154.7,365.2,152.7,367.2,150.3,367.2z"/>
		<path id="path33-0-2_7_" d="M150.3,366.4c-2.2,0-4-1.8-4-3.9s1.8-3.9,4-3.9s4,1.8,4,3.9S152.5,366.4,150.3,366.4z"/>
		<path id="path6193-9-1_7_" class="st11" d="M147,362.5c0,1.6,1.3,2.9,3,2.9s3-1.3,3-2.9s-1.3-2.9-3-2.9S147,360.9,147,362.5z"/>
		<path id="path49-4-6_7_" class="st12" d="M149.2,362.7c-0.6,0-1.2-0.6-1.2-1.2c0-0.7,0.5-1.2,1.2-1.2c0.6,0,1.2,0.6,1.2,1.2
			C150.4,362.2,149.8,362.7,149.2,362.7z"/>
		
			<linearGradient id="path11_1_" gradientUnits="userSpaceOnUse" x1="-224.2636" y1="1384.7158" x2="-220.4893" y2="1374.5323" gradientTransform="matrix(0.9122 0.1783 -0.1783 0.9122 565.1458 -767.4832)">
			<stop  offset="0" style="stop-color:#F9CEB1"/>
			<stop  offset="1" style="stop-color:#F6C19C"/>
		</linearGradient>
		<path id="path11_3_" class="st13" d="M114.4,442.3c-0.6,0.6-4.5,3.3-5.8,5.4s-1.6,5.5-0.3,7.2c1.3,1.7,6.7,2.9,8.8,2.8
			c2,0,2.2-0.6,2.2-0.6s1.4,1.3,2.7,0.7c1.2-0.6,1.4-2.3,1.2-5.5c-0.3-3.2,1.1-3.7-1.5-5.7C119,444.6,114.4,442.3,114.4,442.3
			L114.4,442.3z"/>
		<path id="path155_3_" class="st4" d="M140.5,405c-11.7,14.1-19,23.4-28.2,39.5c1.1,0.2,11.1,4.5,11.1,4.5
			c7.1-13.4,13-19.2,20.5-30.6L140.5,405z"/>
		<path id="path11-34_3_" class="st14" d="M122.4,448.9c0,0,0.2,4.4,0.3,6.2c0.1,1.7-0.5,2.7-1.5,2.6s-1.7-0.7-1.8-1.1
			c-0.1-0.4-0.4-2.5-0.6-2.2s0.8,2-0.2,2.7c-1.1,0.7-2.3,0.3-2.6,0.2c-0.3-0.1-0.4-2.9-0.5-2.8c-0.2,0.3,0.3,2.6-0.2,2.7
			s-2.1-0.3-2.2-0.4c-0.2-0.5-0.5-2.8-0.6-2.7c-0.2,0.2,0.4,2.1,0.1,2.3c-0.3,0.2-1.9-0.2-2.2-0.5c-0.3-0.3-0.6-3.6-0.5-3.2
			c-0.2,0.3,0.1,2.8-0.1,2.8c-0.1,0-0.6-0.2-1.1-0.4c1.4,1.2,4.7,2.1,7,2.4c0.6,0.1,1.1,0.1,1.4,0.1c2,0,2.2-0.6,2.2-0.6
			s1.4,1.3,2.7,0.7c1.2-0.6,1.4-2.3,1.1-5.5c-0.1-1.5,0.1-2.4,0.1-3.1C122.6,449,122.4,448.9,122.4,448.9L122.4,448.9z"/>
		<path id="path5001-9-5-4_3_" class="st6" d="M125.7,446.4c0.8-0.9-11.5-6.2-11.5-6.2s-1.9,2.8-2.8,4.5c-0.3,1.5,11.8,5.8,11.8,5.8
			L125.7,446.4z"/>
		
			<linearGradient id="path11_4_" gradientUnits="userSpaceOnUse" x1="-646.6906" y1="1465.5033" x2="-642.9164" y2="1455.3198" gradientTransform="matrix(-0.9122 0.1783 0.1783 0.9122 -620.803 -767.4832)">
			<stop  offset="0" style="stop-color:#F9CEB1"/>
			<stop  offset="1" style="stop-color:#F6C19C"/>
		</linearGradient>
		<path id="path11_2_" class="st15" d="M229.7,440.7c0.6,0.6,4.5,3.3,5.8,5.4s1.6,5.5,0.3,7.2s-6.7,2.9-8.8,2.8
			c-2,0-2.2-0.6-2.2-0.6s-1.4,1.3-2.7,0.7c-1.2-0.6-1.4-2.3-1.2-5.5c0.3-3.2-1.1-3.7,1.5-5.7C225.1,443,229.7,440.7,229.7,440.7
			L229.7,440.7z"/>
		<path id="path155_2_" class="st4" d="M203.6,403.3c11.7,14.1,19,23.4,28.2,39.5c-1.1,0.2-11.1,4.5-11.1,4.5
			c-7.1-13.4-13.8-19.3-21.4-30.6L203.6,403.3z"/>
		<path id="path11-34_2_" class="st14" d="M221.7,447.3c0,0-0.2,4.4-0.3,6.2c-0.1,1.7,0.5,2.7,1.5,2.6s1.7-0.7,1.8-1.1
			s0.4-2.5,0.6-2.2c0.2,0.3-0.8,2,0.2,2.7c1.1,0.7,2.3,0.3,2.6,0.2c0.3-0.1,0.4-2.9,0.5-2.8c0.2,0.3-0.3,2.6,0.2,2.7
			s2.1-0.3,2.2-0.4c0.2-0.5,0.5-2.8,0.6-2.7c0.2,0.2-0.4,2.1-0.1,2.3c0.3,0.2,1.9-0.2,2.2-0.5s0.6-3.6,0.5-3.2
			c0.2,0.3-0.1,2.8,0.1,2.8c0.1,0,0.6-0.2,1.1-0.4c-1.4,1.2-4.7,2.1-7,2.4c-0.6,0.1-1.1,0.1-1.4,0.1c-2,0-2.2-0.6-2.2-0.6
			s-1.4,1.3-2.7,0.7c-1.2-0.6-1.4-2.3-1.1-5.5c0.1-1.5-0.1-2.4-0.1-3.1C221.5,447.4,221.7,447.3,221.7,447.3L221.7,447.3z"/>
		<path id="path5001-9-5-4_2_" class="st6" d="M218.4,444.7c-0.8-0.9,11.5-6.2,11.5-6.2s1.9,2.8,2.8,4.5c0.3,1.5-11.8,5.8-11.8,5.8
			L218.4,444.7z"/>
		<path id="polygon37-1_15_" class="st9" d="M156.7,361.8c-5.4-2.6-10.5-4.1-14.3-3.8c-2-0.2-1.5-3.5,1-3.5c4.6,0,9.5,1.4,14.1,3.9
			C159.8,359.8,159.2,363.1,156.7,361.8z"/>
		<path id="polygon37-1_14_" class="st9" d="M171,361.8c6-2.2,11.5-3.3,15.5-2.7c2.2-0.1,1.9-3.3-0.7-3.5
			c-4.9-0.4-10.3,0.7-15.3,2.8C167.8,359.6,168.1,362.8,171,361.8z"/>
		<path id="path153_1_" class="st16" d="M152,382.6c0.5-0.3,6.5-4.4,12.4-5.7c5.9-1.3,13,1.5,8.9,9.7c-1.9-6.7-11.7-3.7-19.5-0.8
			C155.3,384.1,152,382.6,152,382.6L152,382.6z"/>
		<path id="path153-3_1_" class="st17" d="M171.3,380.9c-1.1,0-2.6,0.1-4.5,0.2c-7.7,0.7-9.3,1.1-9.3,1.1s-0.1,0.6-0.1,1.7
			c6.9-2.4,16-4.3,16.1,2.1c0.8-1.8,1-3.6,0.8-4.9C173.7,381,172.9,380.9,171.3,380.9L171.3,380.9z"/>
		<path id="path153-7_1_" class="st10" d="M166.5,382c-4.3,0.3-8,1.4-12.7,3.7c7.8-2.9,17.6-5.9,19.6,0.8l0,0
			C172.9,382.8,170.8,381.7,166.5,382z"/>
		<path id="path153-0_1_" class="st17" d="M166.7,376.8c-0.8,0-1.5,0.1-2.3,0.3c-2.7,0.6-5.3,1.7-7.5,2.8c0,0.4,0,0.9,0,0.9
			l16.9-1.1C172.5,377.6,169.6,376.7,166.7,376.8L166.7,376.8z"/>
	</g>
</g>
</svg>
