<?xml version="1.0" encoding="utf-8"?>
<!-- Generator: Adobe Illustrator 23.0.1, SVG Export Plug-In . SVG Version: 6.00 Build 0)  -->
<svg version="1.1" id="Layer_1" xmlns="http://www.w3.org/2000/svg" xmlns:xlink="http://www.w3.org/1999/xlink" x="0px" y="0px"
	 viewBox="0 0 800 800" enable-background="new 0 0 800 800" xml:space="preserve">
<g id="OBJECTS">
	<g id="happy">
		
			<linearGradient id="SVGID_1_" gradientUnits="userSpaceOnUse" x1="430.9702" y1="1289.8195" x2="566.4772" y2="1366.8722" gradientTransform="matrix(1 0 0 1 0 -926)">
			<stop  offset="0" style="stop-color:#FFDDC0"/>
			<stop  offset="1" style="stop-color:#FFDDC0"/>
		</linearGradient>
		<path fill="url(#SVGID_1_)" d="M494,392.3c3.1-2.2,17.6-5.9,20.2-6.7c1,0.2,1.6,0.6,2.6,1.6l0,0l0,0c1.3,1.6,1.3,2.6,2.1,5.7
			c0,0.2,0,0.2,0,0.4l0,0c0.3,1,0.5,2.2,0.3,3.2c-0.5,0.8-7.8,3.4-7.8,3.4l0.8,3c0.3,1,0.5,1.8,0.5,2.6c-0.3,1.2-0.3,3-0.5,4.4
			c0,1.4,0,2.6-1,3.2c-0.5,0.4-1,0.6-1.6,0.4c-1,0,4.7,6.3,4.7,6.3l0,0c0,0.4,0,0.6,0,1c0,0.2,0,0.2-0.3,0.4
			c-0.5,0.6-1.6,0.6-2.3,0.6c-0.5,0-1-0.2-1-0.2s0.5,0.4,1,1c0.3,0.4,0.5,1.2,0.5,1.8c0,0.8-0.5,1-0.8,1.2c-0.8,0.2-1.8,0.2-1.8,0.2
			s0,0,0,0.2c0.3,0.2,0.3,0.6,0.3,1l0,0l0,0v0.2l0,0l0,0v0.2c0,0.2-0.3,0.4-0.5,0.8c-1,1-2.3,1-4.7-0.4c0.3,0.2,0.5,1.4-1.6,2
			c-1,0.2-2.3-0.2-3.6-1c-2.3-1.2-5.2-3.6-6.7-5.3c-2.6-2.6-4.7-5.5-6-8.7C485,409.6,484.2,399.3,494,392.3z"/>
		<path id="path47-3_3_" fill="#EAEBED" d="M498.7,342.8c15.8,4.8,27.2,11.9,33.4,16c2.6,1.8,2.6,5-0.3,6.7l-26.7,17.2
			c0,0,0.8,12.9,11.6,13.1c6.2,0.2,46.6-23.2,43-39c-3.1-13.1-32.4-37.6-54.1-40.8C497.7,316.7,488.6,333.1,498.7,342.8z"/>
		<path id="path5001-1-5_4_" fill="#D9D8D7" d="M508,379.2c0.5,0.8,14.8,17.4,14.8,17.4s-8.5,5.1-8.8,4.8
			c-0.3-0.4-15.3-13.5-15.3-13.5L508,379.2z"/>
		<path fill="#E2B9A3" d="M444.3,303.8c-2.3,4.6,6.2,27.9,14,28.9c0.3-0.2-31.6,5-45,3.2c-13.5-1.8-19.4-5.3-19.4-5.3
			c6.7-8.9,10.1-16.4,10.1-26.1L444.3,303.8z"/>
		<path fill="#1C1714" d="M494.8,411.3c0,0-30.5-0.2-64.4-0.2v-0.2c-37.3,0.4-73.3,1-73.3,1c-0.3,2.6,5.2,21.4,19.4,28.3l4.9,84.4
			l19.7,0.4c0,0,7.8-54.3,17.1-76.8c1.8-3.8,2.6-6.9,6.5-7.1c4.4,0.2,4.4,3,7,7.1c9.6,22.4,20.7,76.6,20.7,76.6l19.7-0.6l1-84.4
			C487,432.7,495.1,413.7,494.8,411.3z"/>
		<path d="M430.1,411.1L430.1,411.1c-37.3,0.2-73.2,0.8-73.2,0.8c0,0.8,0.5,4.2,1.8,8.7h132.3c3.6-3.8,3.6-8.5,3.6-9.3
			C494.8,411.3,464.3,411.1,430.1,411.1z"/>
		<path id="rect23_7_" fill="#F4F2ED" d="M436,412.9h-21.7v9.5H436V412.9z"/>
		<path id="path29_7_" d="M470.2,511c-13.2,0-23.8,6.9-23.8,15.4c0,0.2,0,0.2,0,0.4H494c0-0.2,0-0.2,0-0.4
			C494,517.7,483.4,511,470.2,511L470.2,511z"/>
		<path id="path31_7_" d="M384.5,511.2c-13.2,0-23.8,6.9-23.8,15.4c0,0.2,0,0.2,0,0.4h47.6c0-0.2,0-0.2,0-0.4
			C408.4,518.1,397.7,511.2,384.5,511.2L384.5,511.2z"/>
		<path id="path161_7_" fill="#3C3B3D" d="M486.5,518.9c-1.8-2-4.7-3-10.4-3.6c-1-0.2-1.6-1.4-0.3-1.2
			C488.1,514.5,487,519.5,486.5,518.9L486.5,518.9z"/>
		<path id="path163_7_" fill="#3C3B3D" d="M402.4,520.3c-1.8-2-4.7-3-10.4-3.6c-1-0.2-1.6-1.4-0.3-1.2
			C404,516.1,403.2,520.9,402.4,520.3L402.4,520.3z"/>
		<path id="path25_7_" fill="#EAEBED" d="M505.9,316.5c-0.3,2.8,5.7,85.2-7,96.5c-5.7,5.9-94.7,4.2-138,4.4c-9.6,0-14-11.3-14.2-20
			l-4.9-77.6c7.5-4.2,36.5-6.5,68.1-7.3c3.9,0-6,7.7,11.9,7.7c15,0,9.3-7.9,14-7.9C468.1,312.1,497.9,313.7,505.9,316.5z"/>
		<path fill="#C01626" d="M435.8,336.3l3.9-9.5c0-1.6,0-3.2,0.3-4.8c-4.9-3.4-9.3-6.3-9.3-6.3l-8.5-0.2l-8.5,0.2c0,0-4.4,3-9.1,6.3
			c0.5,2.2,0.8,4.6,1,6.9l3.1,7.5l3.6,5l-6.2,50.1c0,0,13.5,19,16.8,22.4c3.1-3.4,16.8-22.4,16.8-22.4l-6.7-50.1L435.8,336.3z"/>
		<path fill="#D4D3D2" d="M417.7,312.1c-0.5,0.6-14,23.8-14.5,23c-0.5-0.8-17.9-18.6-17.9-18.6s10.1-9.1,10.4-9.1
			C395.9,307.4,417.7,312.1,417.7,312.1z"/>
		<path fill="#D4D3D2" d="M427,312.1c0.5,0.6,14,23.8,14.5,23c0.5-0.8,17.9-18.6,17.9-18.6s-10.1-9.1-10.4-9.1L427,312.1z"/>
		
			<linearGradient id="path13-5-5-34_1_" gradientUnits="userSpaceOnUse" x1="290.5631" y1="1074.7479" x2="546.603" y2="1250.3181" gradientTransform="matrix(1 0 0 1 0 -926)">
			<stop  offset="0" style="stop-color:#FFDABC"/>
			<stop  offset="0.2713" style="stop-color:#FED7B8"/>
			<stop  offset="0.5177" style="stop-color:#FACFAD"/>
			<stop  offset="0.7544" style="stop-color:#F3C19B"/>
			<stop  offset="0.9839" style="stop-color:#EAAE81"/>
			<stop  offset="1" style="stop-color:#E9AC7F"/>
		</linearGradient>
		<path id="path13-5-5-34_7_" fill="url(#path13-5-5-34_1_)" d="M324.5,216.8c1.3,7.1,9.6,17.8,6.2,30.3
			c-1.3,17.4-4.1,36.2,23.3,53.5c23.3,16.6,90.3,13.3,126.6-11.9c25.9-15.3,19.9-38.2,19.9-38.2c36,3,26.7-30.3,14.5-31.9
			c-8.8-1.2-14.5,3.2-14.5,3.2s-1.8-36.2-11.4-45.4c-45-16.8-92.1-8.5-138.5-1.4C350.9,175,321.1,198,324.5,216.8z"/>
		<path id="polygon37-1_13_" fill="#4E1E05" d="M403.7,227.9c15.3-4.8,29.5-7.5,39.9-6.5c5.7-0.4,4.7-6.7-2.1-6.9
			c-12.7-0.4-26.4,2.2-39.3,6.7C395.4,223.8,396.4,230.3,403.7,227.9z"/>
		<path id="polygon37-1_12_" fill="#4E1E05" d="M372.9,231.1c-15.5-1.2-29-0.6-38,2.6c-5.2,1-6.7-5.3-0.8-7.1
			c11.1-3.2,24.6-3.8,37.8-2.2C378.6,225.4,380.1,231.7,372.9,231.1z"/>
		<path id="path41-1_6_" fill="#E8B79D" d="M381.2,259l15.8,5.7c0,0-10.9,0.6-11.9,0.2c-3.4-1.8-8.3-5.7-8.3-5.7
			c10.6-5.7,8.3-16.4,3.4-23.4C389.2,244.6,388.2,250.9,381.2,259z"/>
		<path id="path33-1-5_6_" fill="#E8B79D" d="M423.6,246.4c-6.2,0.6-11.9-2.6-12.7-7.3c-0.8-4.8,3.4-9.1,9.6-9.9
			c6.2-0.6,11.9,2.6,12.7,7.3C434,241.2,429.6,245.6,423.6,246.4z"/>
		<path id="path33-2_6_" d="M423.1,244.8c-5.7,0.6-10.9-2.4-11.6-6.5c-0.8-4.2,3.1-8.1,8.8-8.7c5.7-0.6,10.9,2.4,11.6,6.5
			C432.7,240.2,428.8,244,423.1,244.8z"/>
		<path id="path6193-7_6_" fill="#111111" d="M413.3,238c0.5,3.2,4.4,5.3,8.8,4.8c4.1-0.4,7.2-3.4,6.5-6.5c-0.5-3.2-4.4-5.3-8.8-4.8
			C415.6,231.9,412.8,234.9,413.3,238z"/>
		<path id="path49-6_6_" fill="#FFFFFF" d="M419,237.8c-1.6,0.2-3.1-0.8-3.4-2.2c-0.3-1.4,0.8-2.6,2.6-2.8c1.6-0.2,3.1,0.8,3.4,2.2
			C421.8,236.4,420.5,237.6,419,237.8z"/>
		<path id="path57-1_7_" fill="#D29E73" d="M517.8,229.5c3.9,6.7,0,12.3-4.7,15.3c-4.7,2.8-9.1,3-8.8,0.2c0.3-2.8,8-6.3,5.4-8.5
			c-2.6-2.2-5.7-0.4-7-2.4C500.8,231.1,509,214.7,517.8,229.5z"/>
		<path id="path19-2_7_" fill="#4E1E05" d="M486,250.5c7.5,2.2,9.6-9.3,9.6-9.3s2.6-17,3.9-18.4c1.3-1.4,5.2-3.4,8-4
			c-1.6-3.2,3.1-44.8-17.3-47.5c-2.1-4.2-1-5.9-14-12.3c-48.4-23.4-132.8,20.2-180.4,8.5c18.1,64.6,89,31.7,139,21.2
			c24.1-5.1,30.8,0,37.5,9.1c11.1,13.3,10.6,36.6,9.1,46.3C481.1,246.7,482.9,249.5,486,250.5z"/>
		<path id="path33-1-4-2_6_" fill="#E8B79D" d="M355.6,253.1c-6.2,0.6-11.9-2.6-12.7-7.3c-0.8-4.8,3.4-9.1,9.6-9.9
			c6.2-0.6,11.9,2.6,12.7,7.3C365.9,247.9,361.8,252.5,355.6,253.1z"/>
		<path id="path33-0-2_6_" d="M355,251.5c-5.7,0.6-10.9-2.4-11.6-6.5c-0.8-4.2,3.1-8.1,8.8-8.7c5.7-0.6,10.9,2.4,11.6,6.5
			C364.6,246.9,360.7,250.9,355,251.5z"/>
		<path id="path6193-9-1_6_" fill="#111111" d="M345.2,244.8c0.5,3.2,4.4,5.3,8.8,4.8c4.1-0.4,7.2-3.4,6.5-6.5
			c-0.5-3.2-4.4-5.3-8.8-4.8C347.8,238.8,344.7,241.6,345.2,244.8z"/>
		<path id="path49-4-6_6_" fill="#FFFFFF" d="M351.2,244.6c-1.6,0.2-3.1-0.8-3.4-2.2c-0.3-1.4,0.8-2.6,2.6-2.8
			c1.6-0.2,3.1,0.8,3.4,2.2C353.7,243.2,352.7,244.4,351.2,244.6z"/>
		<path fill="#4E1E05" d="M472.3,183.6c-3.4-1.4-15.3-1.6-35.2,12.1c-19.2,13.3-55.1,13.3-53.3,13.3s14.2-8.1,12.4-7.3
			c-1.8,0.8-22,11.1-44.8,10.9c-38.6-0.4-51.5-23.8-51.5-23.8s11.1,5.3,36.8-0.2c25.6-5.3,39.3-15.4,77.4-17
			C452.1,170.1,472.3,183.6,472.3,183.6z"/>
		<g>
			
				<linearGradient id="rect3838-8-8-8-8_2_" gradientUnits="userSpaceOnUse" x1="-1380.4757" y1="662.0575" x2="-1358.7722" y2="662.209" gradientTransform="matrix(-0.3095 -0.6875 -0.614 0.3158 238.3285 -838.1208)">
				<stop  offset="0" style="stop-color:#FFDDC0"/>
				<stop  offset="1" style="stop-color:#FFD8B6"/>
			</linearGradient>
			<path id="rect3838-8-8-8-8_1_" fill="url(#rect3838-8-8-8-8_2_)" d="M255.4,321.6l-8.3-14.1c-1-1.6,0-3.6,2.1-4.4l1.6-0.6
				c2.1-0.8,4.4-0.2,5.4,1.4l8.3,14.1c1,1.6,0,3.6-2.1,4.4l-1.6,0.6C258.7,323.8,256.4,323.2,255.4,321.6z"/>
			
				<linearGradient id="rect3838-8-8_2_" gradientUnits="userSpaceOnUse" x1="-1439.0327" y1="1751.1427" x2="-1439.0638" y2="1737.0864" gradientTransform="matrix(-0.4936 -0.3021 -0.2897 0.489 25.5992 -981.6264)">
				<stop  offset="0" style="stop-color:#FFDDC0"/>
				<stop  offset="1" style="stop-color:#FFD3AE"/>
			</linearGradient>
			<path id="rect3838-8-8_1_" fill="url(#rect3838-8-8_2_)" d="M234.2,312.9l-12.7-5.9c-1.6-0.8-2.1-2.4-1.3-3.6l0.8-1
				c1-1.2,3.1-1.6,4.7-0.8l12.7,5.9c1.6,0.8,2.1,2.4,1.3,3.6l-0.8,1C238,313.1,236,313.5,234.2,312.9z"/>
			
				<linearGradient id="rect3838-8-8-8_2_" gradientUnits="userSpaceOnUse" x1="-1737.4626" y1="1094.8495" x2="-1737.917" y2="1102.009" gradientTransform="matrix(-0.3487 -0.4618 -0.4486 0.3491 122.9662 -877.4415)">
				<stop  offset="0" style="stop-color:#FFDDC0"/>
				<stop  offset="1" style="stop-color:#FFD3AE"/>
			</linearGradient>
			<path id="rect3838-8-8-8_1_" fill="url(#rect3838-8-8-8_2_)" d="M237.3,315.3l-9.1-9.1c-1-1.2-0.8-2.8,0.5-3.8l1.3-0.8
				c1.6-0.8,3.6-0.6,4.7,0.4l9.1,9.1c1,1.2,0.8,2.8-0.5,3.8l-1.3,0.8C240.6,316.5,238.3,316.3,237.3,315.3z"/>
			
				<linearGradient id="path107-1_2_" gradientUnits="userSpaceOnUse" x1="-734.5891" y1="-723.6698" x2="-784.5464" y2="-757.3976" gradientTransform="matrix(-0.9295 0 0 -0.9295 -455.6927 -369.5509)">
				<stop  offset="0" style="stop-color:#FFDDC0"/>
				<stop  offset="1" style="stop-color:#FFDDC0"/>
			</linearGradient>
			<path id="path107-1_1_" fill="url(#path107-1_2_)" d="M261.1,330.3c-9.3,2.6-8.5-5.5-22.5-10.9c-1.6-0.6-4.4-1.6-10.1-3.6
				c-3.9-1.8-9.1-4.8-12.4-6.1c-1-8.7,18.9-1,32.6,3c17.9,2,22.3,2.8,23.3,11.3C272.5,327.4,265,328,261.1,330.3z"/>
		</g>
		<path id="path103_1_" fill="#EAEBED" d="M352.4,316.9l-10.1,2.8L300.9,345l-31.1-24.4c0,0-6.7,10.1-16.8,10.5
			c4.7,7.5,36.5,34.5,48.4,33.5c20.2-1.4,54.4-18.8,54.4-18.8L352.4,316.9z"/>
		<path id="path5001-9_1_" fill="#D4D3D2" d="M272.2,318.6c-1,0.4-21.7,9.5-21.7,9.5s1.6,4.2,6,8.3c1,1.2,22.5-10.7,22.5-10.7
			L272.2,318.6z"/>
		<path id="path91_1_" fill="#E8B79D" d="M371.1,274.1c11.4,4.4,41.9-2.2,48.7-3.8c0,0-0.3,9.3-8.3,14.7c-7.2,5.9-24.6,9.1-30.5,7.1
			c-2.3-0.8,4.9-5.7,3.1-9.3C381.7,277.8,371.1,274.1,371.1,274.1z"/>
		<path id="path91-1_1_" fill="#320000" d="M371.6,274.3c4.7,2.2,10.6,4.8,12.7,8.7c1.3,3-2.1,6.5-2.6,8.3
			c15.8,2.2,34.9-5.5,38-20.8C413.3,271.9,384.5,276.7,371.6,274.3z"/>
		<path id="path91-1-3_1_" fill="#D0CFCE" d="M380.9,275.3c0.3,1.4,0.8,2.6,1.6,3.2c2.1,1.4,18.1,0,27.4-1.4c2.8-0.4,5.2-1,7.2-1.4
			c0.8-1.6,1.3-3.2,1.6-5C414,271.9,395.2,275.1,380.9,275.3L380.9,275.3z"/>
	</g>
</g>
</svg>
