<?xml version="1.0" encoding="utf-8"?>
<!-- Generator: Adobe Illustrator 23.0.1, SVG Export Plug-In . SVG Version: 6.00 Build 0)  -->
<svg version="1.1" id="Layer_1" xmlns="http://www.w3.org/2000/svg" xmlns:xlink="http://www.w3.org/1999/xlink" x="0px" y="0px"
	 viewBox="0 0 800 800" style="enable-background:new 0 0 800 800;" xml:space="preserve">
<style type="text/css">
	.st0{fill:url(#SVGID_1_);}
	.st1{fill:#EAEBED;}
	.st2{fill:#D9D8D7;}
	.st3{fill:#E2B9A3;}
	.st4{fill:#1C1714;}
	.st5{fill:#F4F2ED;}
	.st6{fill:#3C3B3D;}
	.st7{fill:#C01626;}
	.st8{fill:#D4D3D2;}
	.st9{fill:url(#path13-5-5-34_1_);}
	.st10{fill:#4E1E05;}
	.st11{fill:#E8B79D;}
	.st12{fill:#111111;}
	.st13{fill:#FFFFFF;}
	.st14{fill:#D29E73;}
	.st15{fill:url(#rect3838-8-8-8-8_2_);}
	.st16{fill:url(#rect3838-8-8_2_);}
	.st17{fill:url(#rect3838-8-8-8_2_);}
	.st18{fill:url(#path107-1_2_);}
	.st19{fill:#320000;}
	.st20{fill:#D0CFCE;}
</style>
<g id="OBJECTS">
	<g id="happy">
		
			<linearGradient id="SVGID_1_" gradientUnits="userSpaceOnUse" x1="635.3129" y1="604.1557" x2="694.0429" y2="570.7603" gradientTransform="matrix(1 0 0 -1 0 802)">
			<stop  offset="0" style="stop-color:#FFDDC0"/>
			<stop  offset="1" style="stop-color:#FFDDC0"/>
		</linearGradient>
		<path class="st0" d="M662.9,208.9c1.2-1.1,6.8-3,7.8-3.4c0.4,0.1,0.6,0.3,1,0.8l0,0l0,0c0.5,0.8,0.5,1.3,0.8,2.9
			c0,0.1,0,0.1,0,0.2l0,0c0.1,0.5,0.2,1.1,0.1,1.6c-0.2,0.4-3,1.7-3,1.7l0.3,1.5c0.1,0.5,0.2,0.9,0.2,1.3c-0.1,0.6-0.1,1.5-0.2,2.2
			c0,0.7,0,1.3-0.4,1.6c-0.2,0.2-0.4,0.3-0.6,0.2c-0.4,0,1.8,3.2,1.8,3.2l0,0c0,0.2,0,0.3,0,0.5c0,0.1,0,0.1-0.1,0.2
			c-0.2,0.3-0.6,0.3-0.9,0.3c-0.2,0-0.4-0.1-0.4-0.1s0.2,0.2,0.4,0.5c0.1,0.2,0.2,0.6,0.2,0.9c0,0.4-0.2,0.5-0.3,0.6
			c-0.3,0.1-0.7,0.1-0.7,0.1s0,0,0,0.1c0.1,0.1,0.1,0.3,0.1,0.5l0,0l0,0v0.1l0,0l0,0v0.1c0,0.1-0.1,0.2-0.2,0.4
			c-0.4,0.5-0.9,0.5-1.8-0.2c0.1,0.1,0.2,0.7-0.6,1c-0.4,0.1-0.9-0.1-1.4-0.5c-0.9-0.6-2-1.8-2.6-2.7c-1-1.3-1.8-2.8-2.3-4.4
			C659.4,217.6,659.1,212.4,662.9,208.9z"/>
		<path id="path47-3_3_" class="st1" d="M664.7,183.9c6.1,2.4,10.5,6,12.9,8.1c1,0.9,1,2.5-0.1,3.4l-10.3,8.7c0,0,0.3,6.5,4.5,6.6
			c2.4,0.1,18-11.7,16.6-19.7c-1.2-6.6-12.5-19-20.9-20.6C664.3,170.7,660.8,179,664.7,183.9z"/>
		<path id="path5001-1-5_4_" class="st2" d="M668.3,202.3c0.2,0.4,5.7,8.8,5.7,8.8s-3.3,2.6-3.4,2.4c-0.1-0.2-5.9-6.8-5.9-6.8
			L668.3,202.3z"/>
		<path class="st3" d="M643.7,164.2c-0.9,2.3,2.4,14.1,5.4,14.6c0.1-0.1-12.2,2.5-17.4,1.6s-7.5-2.7-7.5-2.7
			c2.6-4.5,3.9-8.3,3.9-13.2L643.7,164.2z"/>
		<path class="st4" d="M663.2,218.5c0,0-11.8-0.1-24.9-0.1v-0.1c-14.4,0.2-28.3,0.5-28.3,0.5c-0.1,1.3,2,10.8,7.5,14.3l1.9,42.6
			l7.6,0.2c0,0,3-27.4,6.6-38.8c0.7-1.9,1-3.5,2.5-3.6c1.7,0.1,1.7,1.5,2.7,3.6c3.7,11.3,8,38.7,8,38.7l7.6-0.3l0.4-42.6
			C660.2,229.3,663.3,219.7,663.2,218.5z"/>
		<path d="M638.2,218.4L638.2,218.4c-14.4,0.1-28.3,0.4-28.3,0.4c0,0.4,0.2,2.1,0.7,4.4h51.1c1.4-1.9,1.4-4.3,1.4-4.7
			C663.2,218.5,651.4,218.4,638.2,218.4z"/>
		<path id="rect23_7_" class="st5" d="M640.5,219.3h-8.4v4.8h8.4V219.3z"/>
		<path id="path29_7_" d="M653.7,268.8c-5.1,0-9.2,3.5-9.2,7.8c0,0.1,0,0.1,0,0.2h18.4c0-0.1,0-0.1,0-0.2
			C662.9,272.2,658.8,268.8,653.7,268.8L653.7,268.8z"/>
		<path id="path31_7_" d="M620.6,268.9c-5.1,0-9.2,3.5-9.2,7.8c0,0.1,0,0.1,0,0.2h18.4c0-0.1,0-0.1,0-0.2
			C629.8,272.4,625.7,268.9,620.6,268.9L620.6,268.9z"/>
		<path id="path161_7_" class="st6" d="M660,272.8c-0.7-1-1.8-1.5-4-1.8c-0.4-0.1-0.6-0.7-0.1-0.6
			C660.6,270.6,660.2,273.1,660,272.8L660,272.8z"/>
		<path id="path163_7_" class="st6" d="M627.5,273.5c-0.7-1-1.8-1.5-4-1.8c-0.4-0.1-0.6-0.7-0.1-0.6
			C628.1,271.4,627.8,273.8,627.5,273.5L627.5,273.5z"/>
		<path id="path25_7_" class="st1" d="M667.5,170.6c-0.1,1.4,2.2,43-2.7,48.7c-2.2,3-36.6,2.1-53.3,2.2c-3.7,0-5.4-5.7-5.5-10.1
			l-1.9-39.2c2.9-2.1,14.1-3.3,26.3-3.7c1.5,0-2.3,3.9,4.6,3.9c5.8,0,3.6-4,5.4-4C652.9,168.4,664.4,169.2,667.5,170.6z"/>
		<path class="st7" d="M640.4,180.6l1.5-4.8c0-0.8,0-1.6,0.1-2.4c-1.9-1.7-3.6-3.2-3.6-3.2l-3.3-0.1l-3.3,0.1c0,0-1.7,1.5-3.5,3.2
			c0.2,1.1,0.3,2.3,0.4,3.5l1.2,3.8l1.4,2.5l-2.4,25.3c0,0,5.2,9.6,6.5,11.3c1.2-1.7,6.5-11.3,6.5-11.3l-2.6-25.3L640.4,180.6z"/>
		<path class="st8" d="M633.4,168.4c-0.2,0.3-5.4,12-5.6,11.6c-0.2-0.4-6.9-9.4-6.9-9.4s3.9-4.6,4-4.6S633.4,168.4,633.4,168.4z"/>
		<path class="st8" d="M637,168.4c0.2,0.3,5.4,12,5.6,11.6c0.2-0.4,6.9-9.4,6.9-9.4s-3.9-4.6-4-4.6L637,168.4z"/>
		
			<linearGradient id="path13-5-5-34_1_" gradientUnits="userSpaceOnUse" x1="580.655" y1="707.8594" x2="684.8337" y2="636.4226" gradientTransform="matrix(1 0 0 -1 0 802)">
			<stop  offset="0" style="stop-color:#FFDABC"/>
			<stop  offset="0.2713" style="stop-color:#FED7B8"/>
			<stop  offset="0.5177" style="stop-color:#FACFAD"/>
			<stop  offset="0.7544" style="stop-color:#F3C19B"/>
			<stop  offset="0.9839" style="stop-color:#EAAE81"/>
			<stop  offset="1" style="stop-color:#E9AC7F"/>
		</linearGradient>
		<path id="path13-5-5-34_7_" class="st9" d="M597.4,120.3c0.5,3.6,3.7,9,2.4,15.3c-0.5,8.8-1.6,18.3,9,27c9,8.4,34.9,6.7,48.9-6
			c10-7.7,7.7-19.3,7.7-19.3c13.9,1.5,10.3-15.3,5.6-16.1c-3.4-0.6-5.6,1.6-5.6,1.6s-0.7-18.3-4.4-22.9c-17.4-8.5-35.6-4.3-53.5-0.7
			C607.6,99.2,596.1,110.8,597.4,120.3z"/>
		<path id="polygon37-1_13_" class="st10" d="M628,125.9c5.9-2.4,11.4-3.8,15.4-3.3c2.2-0.2,1.8-3.4-0.8-3.5
			c-4.9-0.2-10.2,1.1-15.2,3.4C624.8,123.8,625.2,127.1,628,125.9z"/>
		<path id="polygon37-1_12_" class="st10" d="M616.1,127.5c-6-0.6-11.2-0.3-14.7,1.3c-2,0.5-2.6-2.7-0.3-3.6
			c4.3-1.6,9.5-1.9,14.6-1.1C618.3,124.6,618.9,127.8,616.1,127.5z"/>
		<path id="path41-1_6_" class="st11" d="M619.3,141.6l6.1,2.9c0,0-4.2,0.3-4.6,0.1c-1.3-0.9-3.2-2.9-3.2-2.9
			c4.1-2.9,3.2-8.3,1.3-11.8C622.4,134.3,622,137.5,619.3,141.6z"/>
		<path id="path33-1-5_6_" class="st11" d="M635.7,135.2c-2.4,0.3-4.6-1.3-4.9-3.7c-0.3-2.4,1.3-4.6,3.7-5c2.4-0.3,4.6,1.3,4.9,3.7
			C639.7,132.6,638,134.8,635.7,135.2z"/>
		<path id="path33-2_6_" d="M635.5,134.4c-2.2,0.3-4.2-1.2-4.5-3.3s1.2-4.1,3.4-4.4s4.2,1.2,4.5,3.3
			C639.2,132.1,637.7,134,635.5,134.4z"/>
		<path id="path6193-7_6_" class="st12" d="M631.7,131c0.2,1.6,1.7,2.7,3.4,2.4c1.6-0.2,2.8-1.7,2.5-3.3c-0.2-1.6-1.7-2.7-3.4-2.4
			C632.6,127.9,631.5,129.4,631.7,131z"/>
		<path id="path49-6_6_" class="st13" d="M633.9,130.9c-0.6,0.1-1.2-0.4-1.3-1.1c-0.1-0.7,0.3-1.3,1-1.4c0.6-0.1,1.2,0.4,1.3,1.1
			C635,130.2,634.5,130.8,633.9,130.9z"/>
		<path id="path57-1_7_" class="st14" d="M672.1,126.7c1.5,3.4,0,6.2-1.8,7.7c-1.8,1.4-3.5,1.5-3.4,0.1s3.1-3.2,2.1-4.3
			s-2.2-0.2-2.7-1.2C665.5,127.5,668.7,119.2,672.1,126.7z"/>
		<path id="path19-2_7_" class="st10" d="M659.8,137.3c2.9,1.1,3.7-4.7,3.7-4.7s1-8.6,1.5-9.3c0.5-0.7,2-1.7,3.1-2
			c-0.6-1.6,1.2-22.6-6.7-24c-0.8-2.1-0.4-3-5.4-6.2c-18.7-11.8-51.3,10.2-69.7,4.3c7,32.6,34.4,16,53.7,10.7
			c9.3-2.6,11.9,0,14.5,4.6c4.3,6.7,4.1,18.5,3.5,23.4C657.9,135.4,658.6,136.8,659.8,137.3z"/>
		<path id="path33-1-4-2_6_" class="st11" d="M609.4,138.6c-2.4,0.3-4.6-1.3-4.9-3.7c-0.3-2.4,1.3-4.6,3.7-5
			c2.4-0.3,4.6,1.3,4.9,3.7C613.4,136,611.8,138.3,609.4,138.6z"/>
		<path id="path33-0-2_6_" d="M609.2,137.8c-2.2,0.3-4.2-1.2-4.5-3.3s1.2-4.1,3.4-4.4c2.2-0.3,4.2,1.2,4.5,3.3
			C612.9,135.5,611.4,137.5,609.2,137.8z"/>
		<path id="path6193-9-1_6_" class="st12" d="M605.4,134.4c0.2,1.6,1.7,2.7,3.4,2.4c1.6-0.2,2.8-1.7,2.5-3.3
			c-0.2-1.6-1.7-2.7-3.4-2.4C606.4,131.4,605.2,132.8,605.4,134.4z"/>
		<path id="path49-4-6_6_" class="st13" d="M607.7,134.3c-0.6,0.1-1.2-0.4-1.3-1.1c-0.1-0.7,0.3-1.3,1-1.4c0.6-0.1,1.2,0.4,1.3,1.1
			C608.7,133.6,608.3,134.2,607.7,134.3z"/>
		<path class="st10" d="M654.5,103.5c-1.3-0.7-5.9-0.8-13.6,6.1c-7.4,6.7-21.3,6.7-20.6,6.7s5.5-4.1,4.8-3.7s-8.5,5.6-17.3,5.5
			c-14.9-0.2-19.9-12-19.9-12s4.3,2.7,14.2-0.1c9.9-2.7,15.2-7.8,29.9-8.6C646.7,96.7,654.5,103.5,654.5,103.5z"/>
		<g>
			
				<linearGradient id="rect3838-8-8-8-8_2_" gradientUnits="userSpaceOnUse" x1="-452.2888" y1="1054.3417" x2="-442.0409" y2="1054.2701" gradientTransform="matrix(-0.3095 -0.6875 0.614 -0.3158 -214.935 194.1787)">
				<stop  offset="0" style="stop-color:#FFDDC0"/>
				<stop  offset="1" style="stop-color:#FFD8B6"/>
			</linearGradient>
			<path id="rect3838-8-8-8-8_1_" class="st15" d="M570.7,173.2l-3.2-7.1c-0.4-0.8,0-1.8,0.8-2.2l0.6-0.3c0.8-0.4,1.7-0.1,2.1,0.7
				l3.2,7.1c0.4,0.8,0,1.8-0.8,2.2l-0.6,0.3C572,174.3,571.1,174,570.7,173.2z"/>
			
				<linearGradient id="rect3838-8-8_2_" gradientUnits="userSpaceOnUse" x1="-784.5803" y1="500.6794" x2="-784.5921" y2="505.9931" gradientTransform="matrix(-0.4936 -0.3021 0.2897 -0.489 28.0479 174.5773)">
				<stop  offset="0" style="stop-color:#FFDDC0"/>
				<stop  offset="1" style="stop-color:#FFD3AE"/>
			</linearGradient>
			<path id="rect3838-8-8_1_" class="st16" d="M562.5,168.8l-4.9-3c-0.6-0.4-0.8-1.2-0.5-1.8l0.3-0.5c0.4-0.6,1.2-0.8,1.8-0.4l4.9,3
				c0.6,0.4,0.8,1.2,0.5,1.8l-0.3,0.5C564,168.9,563.2,169.1,562.5,168.8z"/>
			
				<linearGradient id="rect3838-8-8-8_2_" gradientUnits="userSpaceOnUse" x1="-750.5854" y1="921.9145" x2="-750.7767" y2="918.9005" gradientTransform="matrix(-0.3487 -0.4618 0.4486 -0.3491 -111.3839 141.2346)">
				<stop  offset="0" style="stop-color:#FFDDC0"/>
				<stop  offset="1" style="stop-color:#FFD3AE"/>
			</linearGradient>
			<path id="rect3838-8-8-8_1_" class="st17" d="M563.7,170l-3.5-4.6c-0.4-0.6-0.3-1.4,0.2-1.9l0.5-0.4c0.6-0.4,1.4-0.3,1.8,0.2
				l3.5,4.6c0.4,0.6,0.3,1.4-0.2,1.9l-0.5,0.4C565,170.6,564.1,170.5,563.7,170z"/>
			
				<linearGradient id="path107-1_2_" gradientUnits="userSpaceOnUse" x1="-579.4794" y1="1341.9437" x2="-599.8705" y2="1355.7104" gradientTransform="matrix(-0.9295 0 0 0.9295 20.8938 -1082.3684)">
				<stop  offset="0" style="stop-color:#FFDDC0"/>
				<stop  offset="1" style="stop-color:#FFDDC0"/>
			</linearGradient>
			<path id="path107-1_1_" class="st18" d="M572.9,177.6c-3.6,1.3-3.3-2.8-8.7-5.5c-0.6-0.3-1.7-0.8-3.9-1.8
				c-1.5-0.9-3.5-2.4-4.8-3.1c-0.4-4.4,7.3-0.5,12.6,1.5c6.9,1,8.6,1.4,9,5.7C577.3,176.1,574.4,176.4,572.9,177.6z"/>
		</g>
		<path id="path103_1_" class="st1" d="M608.2,170.8l-3.9,1.4l-16,12.8l-12-12.3c0,0-2.6,5.1-6.5,5.3c1.8,3.8,14.1,17.4,18.7,16.9
			c7.8-0.7,21-9.5,21-9.5L608.2,170.8z"/>
		<path id="path5001-9_1_" class="st8" d="M577.2,171.7c-0.4,0.2-8.4,4.8-8.4,4.8s0.6,2.1,2.3,4.2c0.4,0.6,8.7-5.4,8.7-5.4
			L577.2,171.7z"/>
		<path id="path91_1_" class="st11" d="M615.4,149.2c4.4,2.2,16.2-1.1,18.8-1.9c0,0-0.1,4.7-3.2,7.4c-2.8,3-9.5,4.6-11.8,3.6
			c-0.9-0.4,1.9-2.9,1.2-4.7C619.5,151.1,615.4,149.2,615.4,149.2z"/>
		<path id="path91-1_1_" class="st19" d="M615.6,149.3c1.8,1.1,4.1,2.4,4.9,4.4c0.5,1.5-0.8,3.3-1,4.2c6.1,1.1,13.5-2.8,14.7-10.5
			C631.7,148.1,620.6,150.5,615.6,149.3z"/>
		<path id="path91-1-3_1_" class="st20" d="M619.2,149.8c0.1,0.7,0.3,1.3,0.6,1.6c0.8,0.7,7,0,10.6-0.7c1.1-0.2,2-0.5,2.8-0.7
			c0.3-0.8,0.5-1.6,0.6-2.5C632,148.1,624.7,149.7,619.2,149.8L619.2,149.8z"/>
	</g>
</g>
</svg>
