<?xml version="1.0" encoding="utf-8"?>
<!-- Generator: Adobe Illustrator 23.0.1, SVG Export Plug-In . SVG Version: 6.00 Build 0)  -->
<svg version="1.1" id="OBJECTS" xmlns="http://www.w3.org/2000/svg" xmlns:xlink="http://www.w3.org/1999/xlink" x="0px" y="0px"
	 viewBox="0 0 800 800" enable-background="new 0 0 800 800" xml:space="preserve">
<g id="neutral">
	<linearGradient id="SVGID_1_" gradientUnits="userSpaceOnUse" x1="132.5654" y1="682.7607" x2="145.5869" y2="682.7607">
		<stop  offset="0" style="stop-color:#FFDABC"/>
		<stop  offset="0.2713" style="stop-color:#FED7B8"/>
		<stop  offset="0.5177" style="stop-color:#FACFAD"/>
		<stop  offset="0.7544" style="stop-color:#F3C19B"/>
		<stop  offset="0.9839" style="stop-color:#EAAE81"/>
		<stop  offset="1" style="stop-color:#E9AC7F"/>
	</linearGradient>
	<path fill="url(#SVGID_1_)" d="M142.5,675c-1.2-1.1-6.8-3-7.8-3.4c-0.4,0.1-0.6,0.3-1,0.8c0,0,0,0,0,0c0,0,0,0,0,0
		c-0.5,0.8-0.5,1.3-0.8,2.9c0,0.1,0,0.1,0,0.2c0,0,0,0,0,0c-0.1,0.5-0.2,1.1-0.1,1.6c0.2,0.4,3,1.7,3,1.7l-0.3,1.5
		c-0.1,0.5-0.2,0.9-0.2,1.3c0.1,0.6,0.1,1.5,0.2,2.2c0,0.7,0,1.3,0.4,1.6c0.2,0.2,0.4,0.3,0.6,0.2c0.4,0-1.8,3.2-1.8,3.2
		c0,0,0,0,0,0c0,0.2,0,0.3,0,0.5c0,0.1,0,0.1,0.1,0.2c0.2,0.3,0.6,0.3,0.9,0.3c0.2,0,0.4-0.1,0.4-0.1s-0.2,0.2-0.4,0.5
		c-0.1,0.2-0.2,0.6-0.2,0.9c0,0.4,0.2,0.5,0.3,0.6c0.3,0.1,0.7,0.1,0.7,0.1c0,0,0,0,0,0.1c-0.1,0.1-0.1,0.3-0.1,0.5c0,0,0,0,0,0
		c0,0,0,0,0,0c0,0,0,0.1,0,0.1c0,0,0,0,0,0c0,0,0,0,0,0c0,0,0,0.1,0,0.1c0,0.1,0.1,0.2,0.2,0.4c0.4,0.5,0.9,0.5,1.8-0.2
		c-0.1,0.1-0.2,0.7,0.6,1c0.4,0.1,0.9-0.1,1.4-0.5c0.9-0.6,2-1.8,2.6-2.7c1-1.3,1.8-2.8,2.3-4.4C146,683.8,146.3,678.6,142.5,675z"
		/>
	<path id="path47-3_4_" fill="#EAEBED" d="M140.6,650.1c-6.1,2.4-9.3,4.3-11.6,6.5c-1,0.9-1,2.5,0.1,3.4l9,10.4c0,0-0.3,6.5-4.5,6.6
		c-2.4,0.1-18-11.7-16.6-19.7c1.2-6.6,15.3-19.3,23.7-20.8C143.9,636.6,144.5,645.1,140.6,650.1z"/>
	<path id="path5001-1-5_5_" fill="#D9D8D7" d="M137.1,668.5c-0.2,0.4-5.7,8.8-5.7,8.8s3.3,2.6,3.4,2.4c0.1-0.2,5.9-6.8,5.9-6.8
		L137.1,668.5z"/>
	<path fill="#E2B9A3" d="M177.3,629.5c-0.9,2.3,2.4,14.1,5.4,14.6c0.1-0.1-12.2,2.5-17.4,1.6c-5.2-0.9-7.5-2.7-7.5-2.7
		c2.6-4.5,3.9-8.3,3.9-13.2L177.3,629.5z"/>
	<path fill="#1C1714" d="M196.8,683.8c0,0-11.8-0.1-24.9-0.1v-0.1c-14.4,0.2-28.3,0.5-28.3,0.5c-0.1,1.3,2,10.8,7.5,14.3l1.9,42.6
		l7.6,0.2c0,0,3-27.4,6.6-38.8c0.7-1.9,1-3.5,2.5-3.6c1.7,0.1,1.7,1.5,2.7,3.6c3.7,11.3,8,38.7,8,38.7l7.6-0.3l0.4-42.6
		C193.8,694.6,197,685,196.8,683.8z"/>
	<path d="M171.9,683.7L171.9,683.7c-14.4,0.1-28.3,0.4-28.3,0.4c0,0.4,0.2,2.1,0.7,4.4h51.1c1.4-1.9,1.4-4.3,1.4-4.7
		C196.8,683.8,185,683.7,171.9,683.7z"/>
	<path id="rect23_9_" fill="#F4F2ED" d="M174.1,684.6h-8.4v4.8h8.4V684.6z"/>
	<path id="path29_9_" d="M187.3,734.1c-5.1,0-9.2,3.5-9.2,7.8c0,0.1,0,0.1,0,0.2h18.4c0-0.1,0-0.1,0-0.2
		C196.5,737.5,192.4,734.1,187.3,734.1L187.3,734.1z"/>
	<path id="path31_9_" d="M154.3,734.2c-5.1,0-9.2,3.5-9.2,7.8c0,0.1,0,0.1,0,0.2h18.4c0-0.1,0-0.1,0-0.2
		C163.5,737.7,159.4,734.2,154.3,734.2L154.3,734.2z"/>
	<path id="path161_9_" fill="#3C3B3D" d="M193.6,738.1c-0.7-1-1.8-1.5-4-1.8c-0.4-0.1-0.6-0.7-0.1-0.6
		C194.2,735.9,193.9,738.4,193.6,738.1L193.6,738.1z"/>
	<path id="path163_9_" fill="#3C3B3D" d="M161.2,738.8c-0.7-1-1.8-1.5-4-1.8c-0.4-0.1-0.6-0.7-0.1-0.6
		C161.8,736.7,161.4,739.1,161.2,738.8L161.2,738.8z"/>
	<path id="path25_9_" fill="#EAEBED" d="M201.1,635.9c-0.1,1.4,2.2,43-2.7,48.7c-2.2,3-36.6,2.1-53.3,2.2c-3.7,0-5.4-5.7-5.5-10.1
		l-1.9-39.2c2.9-2.1,14.1-3.3,26.3-3.7c1.5,0-2.3,3.9,4.6,3.9c5.8,0,3.6-4,5.4-4C186.6,633.7,198,634.5,201.1,635.9z"/>
	<path fill="#C01626" d="M174.1,645.9l1.5-4.8c0-0.8,0-1.6,0.1-2.4c-1.9-1.7-3.6-3.2-3.6-3.2l-3.3-0.1l-3.3,0.1c0,0-1.7,1.5-3.5,3.2
		c0.2,1.1,0.3,2.3,0.4,3.5l1.2,3.8l1.4,2.5l-2.4,25.3c0,0,5.2,9.6,6.5,11.3c1.2-1.7,6.5-11.3,6.5-11.3l-2.6-25.3L174.1,645.9z"/>
	<path fill="#D4D3D2" d="M167,633.7c-0.2,0.3-5.4,12-5.6,11.6c-0.2-0.4-6.9-9.4-6.9-9.4s3.9-4.6,4-4.6
		C158.6,631.3,167,633.7,167,633.7z"/>
	<path fill="#D4D3D2" d="M170.6,633.7c0.2,0.3,5.4,12,5.6,11.6c0.2-0.4,6.9-9.4,6.9-9.4s-3.9-4.6-4-4.6
		C179.1,631.3,170.6,633.7,170.6,633.7z"/>
	<linearGradient id="path13-5-5-34_1_" gradientUnits="userSpaceOnUse" x1="135.9016" y1="596.0031" x2="213.2411" y2="596.0031">
		<stop  offset="0" style="stop-color:#FFDABC"/>
		<stop  offset="0.2713" style="stop-color:#FED7B8"/>
		<stop  offset="0.5177" style="stop-color:#FACFAD"/>
		<stop  offset="0.7544" style="stop-color:#F3C19B"/>
		<stop  offset="0.9839" style="stop-color:#EAAE81"/>
		<stop  offset="1" style="stop-color:#E9AC7F"/>
	</linearGradient>
	<path id="path13-5-5-34_9_" fill="url(#path13-5-5-34_1_)" d="M137.4,580.3c-0.1,3.7,2.3,9.4,0.2,15.5c-1.7,8.6-4.2,17.9,5,28
		c7.7,9.6,33.6,11.7,49.3,1.1c11-6.2,10.4-18,10.4-18c13.6,3.5,12.4-13.6,7.9-15.1c-3.3-1.1-5.7,0.8-5.7,0.8s2-18.2-1-23.3
		c-16-10.9-34.6-9.3-52.9-8.3C150.6,560.8,137.5,570.7,137.4,580.3z"/>
	<path id="polygon37-1_19_" fill="#4E1E05" d="M166.5,587.4c6.3,0.7,11.8,2.1,15.1,4.5c2,0.9,3.2-2.1,0.9-3.5
		c-4.2-2.5-9.5-3.9-15-4.3C164.6,584,163.5,587.1,166.5,587.4z"/>
	<path id="polygon37-1_18_" fill="#4E1E05" d="M155.2,588.1c-6,0.2-11.2,1.1-14.4,3.2c-1.9,0.7-2.9-2.4-0.7-3.5
		c4.1-2.1,9.1-3.1,14.3-3C157.1,584.8,158,588,155.2,588.1z"/>
	<path id="path41-1_9_" fill="#E8B79D" d="M156,604.5l5.6,3.7c0,0-4.2-0.3-4.6-0.5c-1.2-1.1-2.7-3.4-2.7-3.4c4.5-2.3,4.4-7.7,3-11.5
		C160.1,597.7,159.3,600.8,156,604.5z"/>
	<path id="path33-1-5_9_" fill="#E8B79D" d="M173.1,600.5c-2.4,0-4.3-2-4.3-4.4c0-2.4,1.9-4.4,4.3-4.4c2.4,0,4.3,2,4.3,4.4
		C177.5,598.5,175.5,600.5,173.1,600.5z"/>
	<path id="path33-2_9_" d="M173,599.7c-2.2,0-4-1.8-4-3.9c0-2.1,1.8-3.9,4-3.9c2.2,0,4,1.8,4,3.9C177,597.9,175.2,599.7,173,599.7z"
		/>
	<path id="path6193-7_9_" fill="#111111" d="M169.8,595.8c0,1.6,1.3,2.9,3,2.9c1.6,0,3-1.3,3-2.9c0-1.6-1.3-2.9-3-2.9
		C171.1,592.9,169.8,594.2,169.8,595.8z"/>
	<path id="path49-6_9_" fill="#FFFFFF" d="M172,596c-0.6,0-1.2-0.6-1.2-1.2c0-0.7,0.5-1.2,1.2-1.2c0.6,0,1.2,0.6,1.2,1.2
		C173.1,595.5,172.6,596,172,596z"/>
	<path id="path57-1_9_" fill="#A27B63" d="M210.4,597.4c1,3.6-0.9,6.2-2.9,7.3c-2,1.2-3.7,1-3.4-0.4c0.3-1.4,3.5-2.7,2.7-4
		c-0.8-1.3-2.1-0.5-2.5-1.6C203.7,597.2,208.1,589.5,210.4,597.4z"/>
	<path id="path19-2_9_" fill="#4E1E05" d="M196.7,606.1c2.7,1.5,4.4-4.1,4.4-4.1s2.2-8.3,2.8-9c0.6-0.7,2.2-1.4,3.3-1.5
		c-0.3-1.7,4.5-22.2-3.1-24.8c-0.5-2.1,0-3.1-4.5-6.9c-16.8-14.3-52.2,2.7-69.6-5.8c2.2,33.3,31.8,20.8,51.6,18.3
		c9.6-1.2,11.8,1.7,13.7,6.7c3.3,7.3,1.4,18.9,0.1,23.6C195,603.9,195.5,605.4,196.7,606.1z"/>
	<path id="path33-1-4-2_9_" fill="#E8B79D" d="M146.7,600.1c-2.4,0-4.3-2-4.3-4.4c0-2.4,1.9-4.4,4.3-4.4c2.4,0,4.3,2,4.3,4.4
		C151,598.2,149,600.1,146.7,600.1z"/>
	<path id="path33-0-2_9_" d="M146.6,599.3c-2.2,0-4-1.8-4-3.9c0-2.1,1.8-3.9,4-3.9c2.2,0,4,1.8,4,3.9
		C150.6,597.5,148.8,599.3,146.6,599.3z"/>
	<path id="path6193-9-1_9_" fill="#111111" d="M143.3,595.4c0,1.6,1.3,2.9,3,2.9c1.6,0,3-1.3,3-2.9c0-1.6-1.3-2.9-3-2.9
		C144.7,592.5,143.3,593.8,143.3,595.4z"/>
	<path id="path49-4-6_9_" fill="#FFFFFF" d="M145.5,595.6c-0.6,0-1.2-0.6-1.2-1.2c0-0.7,0.5-1.2,1.2-1.2c0.6,0,1.2,0.6,1.2,1.2
		C146.7,595.1,146.1,595.6,145.5,595.6z"/>
	<path fill="#4E1E05" d="M196.3,571.9c-1.2-0.8-5.7-1.7-14.4,4.1c-8.3,5.6-22.1,3.5-21.4,3.7c0.7,0.1,6-3.3,5.3-3
		c-0.7,0.3-9.2,4.4-17.9,3c-14.7-2.3-18-14.7-18-14.7s3.9,3.3,14.1,2c10.1-1.3,16.2-5.5,30.8-4.2C189.5,564,196.3,571.9,196.3,571.9
		z"/>
	<path id="path441_1_" fill="#EAEBED" d="M213.7,603.2c5.7,13.8,0.3,24.2-25,31.1l12.4,9.2c10.6,0,37.5-24.1,18.3-45.6
		C216.5,595.7,215.4,602.3,213.7,603.2z"/>
	
		<linearGradient id="path457_2_" gradientUnits="userSpaceOnUse" x1="209.1839" y1="215.3229" x2="222.248" y2="193.8695" gradientTransform="matrix(1 0 0 -1 0 802)">
		<stop  offset="0" style="stop-color:#FFDABC"/>
		<stop  offset="0.2713" style="stop-color:#FED7B8"/>
		<stop  offset="0.5177" style="stop-color:#FACFAD"/>
		<stop  offset="0.7544" style="stop-color:#F3C19B"/>
		<stop  offset="0.9839" style="stop-color:#EAAE81"/>
		<stop  offset="1" style="stop-color:#E9AC7F"/>
	</linearGradient>
	<path id="path457_1_" fill="url(#path457_2_)" d="M205.8,579.7c-1.2,0-1.9,0.4-1.8,1.2c0.3,1.8,5.1,4.1,7.3,5c-0.3,0-0.5,0-0.8,0.1
		c-0.7,0.3-1.2,1-1.3,1.8c-0.4-0.1-0.7-0.1-1,0.1c-0.8,0.3-1.3,1-1.3,2c-0.3-0.1-0.6,0-0.9,0.1c-1.3,0.4-1.8,2.3-1,4.1
		c0,0.1,0.1,0.1,0.1,0.2c0,0.6,0.2,1.3,0.5,2.1c1.1,3.2,8.4,7.2,8.4,7.2c0.4-0.7,5.4-4.3,6.1-5.3c0.7-0.9,0.9-6.8-0.7-11.3
		C217.6,582.7,209.3,579.7,205.8,579.7L205.8,579.7z"/>
	<path fill="#D4D3D2" d="M221.5,596.7c-0.2,0.2-8.4,6.6-8.4,6.6l1.1,2.5l8.5-5.6L221.5,596.7z"/>
	<linearGradient id="path455-2_2_" gradientUnits="userSpaceOnUse" x1="153.1027" y1="618.1556" x2="169.5977" y2="618.1556">
		<stop  offset="0" style="stop-color:#FFDABC"/>
		<stop  offset="0.2713" style="stop-color:#FED7B8"/>
		<stop  offset="0.5177" style="stop-color:#FACFAD"/>
		<stop  offset="0.7544" style="stop-color:#F3C19B"/>
		<stop  offset="0.9839" style="stop-color:#EAAE81"/>
		<stop  offset="1" style="stop-color:#E9AC7F"/>
	</linearGradient>
	<path id="path455-2_1_" fill="url(#path455-2_2_)" d="M153.1,614.6c1,0,11,0,13.9,2.1c2.9,2.1,4.1,4.5-0.4,5
		c-4.5,0.5-5.6-2.8-9.7-4.7C153,615.1,153.1,614.6,153.1,614.6L153.1,614.6z"/>
	<path id="path455_1_" fill="#320000" d="M152.9,614.6c1,0,11.2-0.5,14,1.7c2.9,2.1,4.1,4.5-0.4,5c-4.5,0.5-5.6-2.8-9.7-4.7
		C152.9,614.6,152.9,614.6,152.9,614.6L152.9,614.6z"/>
	<path id="path455-9_1_" fill="#D0CFCE" d="M161.2,619.2c1.5,1.1,2.9,2,5.3,1.8c0.5-0.1,1-0.1,1.3-0.2c0.1-0.7,0-1.4,0-1.5
		C167.8,619.3,164.1,619.3,161.2,619.2z"/>
	<path id="path455-7_1_" fill="#D0CFCE" d="M155.6,614.7c-1,0-1.8,0-2,0c0,0,0,0,3.7,1.7c0.1,0,0.2,0.1,0.2,0.1
		c3.5,0.2,9.2,0.6,9.3,0.6c0.1,0,0.1-0.3,0.1-0.6c-0.1-0.1-0.2-0.2-0.4-0.3C164.4,614.8,158.7,614.7,155.6,614.7L155.6,614.7z"/>
</g>
</svg>
