<?xml version="1.0" encoding="utf-8"?>
<!-- Generator: Adobe Illustrator 23.0.1, SVG Export Plug-In . SVG Version: 6.00 Build 0)  -->
<svg version="1.1" id="Layer_1" xmlns="http://www.w3.org/2000/svg" xmlns:xlink="http://www.w3.org/1999/xlink" x="0px" y="0px"
	 viewBox="0 0 800 800" style="enable-background:new 0 0 800 800;" xml:space="preserve">
<style type="text/css">
	.st0{fill:#E2B9A3;}
	.st1{fill:#1C1714;}
	.st2{fill:#F4F2ED;}
	.st3{fill:#3C3B3D;}
	.st4{fill:#EAEBED;}
	.st5{fill:#C01626;}
	.st6{fill:#D4D3D2;}
	.st7{fill:url(#path13-5-5-34_1_);}
	.st8{fill:#E8B79D;}
	.st9{fill:#111111;}
	.st10{fill:#FFFFFF;}
	.st11{fill:#4E1E05;}
	.st12{fill:#D29E73;}
	.st13{fill:url(#path515_2_);}
	.st14{fill:url(#path517_2_);}
	.st15{fill:#B4B3B4;}
	.st16{fill:url(#path509_2_);}
</style>
<g id="OBJECTS">
	<g id="unhappy">
		<path class="st0" d="M646.1,402.4c-0.9,2.3,2.4,14.1,5.4,14.6c0.1-0.1-12.2,2.5-17.4,1.6s-7.5-2.7-7.5-2.7
			c2.6-4.5,3.9-8.3,3.9-13.2L646.1,402.4z"/>
		<path class="st1" d="M665.6,456.7c0,0-11.8-0.1-24.9-0.1v-0.1c-14.4,0.2-28.3,0.5-28.3,0.5c-0.1,1.3,2,10.8,7.5,14.3l1.9,42.6
			l7.6,0.2c0,0,3-27.4,6.6-38.8c0.7-1.9,1-3.5,2.5-3.6c1.7,0.1,1.7,1.5,2.7,3.6c3.7,11.3,8,38.7,8,38.7l7.6-0.3l0.4-42.6
			C662.6,467.5,665.7,457.9,665.6,456.7z"/>
		<path d="M640.7,456.6L640.7,456.6c-14.4,0.1-28.3,0.4-28.3,0.4c0,0.4,0.2,2.1,0.7,4.4h51.1c1.4-1.9,1.4-4.3,1.4-4.7
			C665.6,456.7,653.8,456.6,640.7,456.6z"/>
		<path id="rect23_10_" class="st2" d="M642.9,457.5h-8.4v4.8h8.4V457.5z"/>
		<path id="path29_10_" d="M656.1,507c-5.1,0-9.2,3.5-9.2,7.8c0,0.1,0,0.1,0,0.2h18.4c0-0.1,0-0.1,0-0.2
			C665.3,510.4,661.2,507,656.1,507L656.1,507z"/>
		<path id="path31_10_" d="M623,507.1c-5.1,0-9.2,3.5-9.2,7.8c0,0.1,0,0.1,0,0.2h18.4c0-0.1,0-0.1,0-0.2
			C632.3,510.6,628.1,507.1,623,507.1L623,507.1z"/>
		<path id="path161_10_" class="st3" d="M662.4,511c-0.7-1-1.8-1.5-4-1.8c-0.4-0.1-0.6-0.7-0.1-0.6C663,508.9,662.7,511.3,662.4,511
			L662.4,511z"/>
		<path id="path163_10_" class="st3" d="M630,511.7c-0.7-1-1.8-1.5-4-1.8c-0.4-0.1-0.6-0.7-0.1-0.6C630.6,509.6,630.2,512,630,511.7
			L630,511.7z"/>
		<path id="path25_10_" class="st4" d="M669.9,408.8c-0.1,1.4,2.2,43-2.7,48.7c-2.2,3-36.6,2.1-53.3,2.2c-3.7,0-5.4-5.7-5.5-10.1
			l-1.9-39.2c2.9-2.1,14.1-3.3,26.3-3.7c1.5,0-2.3,3.9,4.6,3.9c5.8,0,3.6-4,5.4-4C655.4,406.6,666.8,407.4,669.9,408.8z"/>
		<path class="st5" d="M642.9,418.8l1.5-4.8c0-0.8,0-1.6,0.1-2.4c-1.9-1.7-3.6-3.2-3.6-3.2l-3.3-0.1l-3.3,0.1c0,0-1.7,1.5-3.5,3.2
			c0.2,1.1,0.3,2.3,0.4,3.5l1.2,3.8l1.4,2.5l-2.4,25.3c0,0,5.2,9.6,6.5,11.3c1.2-1.7,6.5-11.3,6.5-11.3l-2.6-25.3L642.9,418.8z"/>
		<path class="st6" d="M635.8,406.6c-0.2,0.3-5.4,12-5.6,11.6c-0.2-0.4-6.9-9.4-6.9-9.4s3.9-4.6,4-4.6L635.8,406.6z"/>
		<path class="st6" d="M639.4,406.6c0.2,0.3,5.4,12,5.6,11.6c0.2-0.4,6.9-9.4,6.9-9.4s-3.9-4.6-4-4.6L639.4,406.6z"/>
		
			<linearGradient id="path13-5-5-34_1_" gradientUnits="userSpaceOnUse" x1="636.3203" y1="494.9279" x2="733.6212" y2="421.8849" gradientTransform="matrix(0.9954 9.560000e-02 9.560000e-02 -0.9954 -85.7717 759.1621)">
			<stop  offset="0" style="stop-color:#FFDABC"/>
			<stop  offset="0.2713" style="stop-color:#FED7B8"/>
			<stop  offset="0.5177" style="stop-color:#FACFAD"/>
			<stop  offset="0.7544" style="stop-color:#F3C19B"/>
			<stop  offset="0.9839" style="stop-color:#EAAE81"/>
			<stop  offset="1" style="stop-color:#E9AC7F"/>
		</linearGradient>
		<path id="path13-5-5-34_10_" class="st7" d="M607.5,350c-0.4,3.7,1.4,9.6-1.3,15.4c-2.5,8.4-5.9,17.4,2.3,28.3
			c6.7,10.3,32.3,14.8,49,5.8c11.6-5.1,12.1-16.9,12.1-16.9c13.2,4.8,13.6-12.4,9.3-14.3c-3.2-1.4-5.8,0.2-5.8,0.2s3.7-18,1.2-23.3
			c-14.8-12.4-33.5-12.6-51.8-13.3C622.5,331.9,608.6,340.5,607.5,350z"/>
		<g>
			<path id="path33-1-5_10_" class="st8" d="M644.6,372.1c-2.4-0.2-4.1-2.4-3.9-4.8c0.2-2.4,2.4-4.2,4.7-4c2.4,0.2,4.1,2.4,3.9,4.8
				C649.1,370.5,646.9,372.3,644.6,372.1z"/>
			<path id="path33-2_10_" d="M644.6,371.2c-2.2-0.2-3.8-2.1-3.6-4.3c0.2-2.1,2.2-3.7,4.3-3.5c2.2,0.2,3.8,2.1,3.6,4.3
				C648.7,369.8,646.8,371.4,644.6,371.2z"/>
			<path id="path6193-7_10_" class="st9" d="M641.7,367c-0.2,1.6,1,3,2.7,3.2c1.6,0.2,3.1-1,3.2-2.6c0.2-1.6-1-3-2.7-3.2
				C643.3,364.3,641.9,365.5,641.7,367z"/>
			<path id="path49-6_10_" class="st10" d="M643.9,367.5c-0.6-0.1-1.1-0.7-1-1.3c0.1-0.7,0.6-1.2,1.3-1.1c0.6,0.1,1.1,0.7,1,1.3
				C645.1,367,644.5,367.5,643.9,367.5z"/>
		</g>
		<path id="polygon37-1_21_" class="st11" d="M634.1,363.9c6.3-0.5,12-0.1,15.7,1.6c2.1,0.5,2.8-2.7,0.3-3.6
			c-4.6-1.7-10.1-2.1-15.5-1.4C631.6,360.9,631,364.1,634.1,363.9z"/>
		<path id="path41-1_10_" class="st8" d="M623.7,375.9l5.2,4.3c0,0-4.1-0.7-4.5-1c-1.1-1.2-2.4-3.6-2.4-3.6
			c4.7-1.9,5.1-7.3,4.1-11.2C628.4,369.5,627.4,372.5,623.7,375.9z"/>
		<path id="path57-1_10_" class="st12" d="M678.6,374c0.7,3.7-1.5,6.1-3.6,7c-2.1,1-3.8,0.6-3.3-0.7c0.4-1.3,3.7-2.3,3-3.7
			c-0.7-1.3-2.1-0.7-2.3-1.8C671.9,373.2,677,365.9,678.6,374z"/>
		<path id="path19-2_10_" class="st11" d="M664.1,381.3c2.6,1.7,4.8-3.7,4.8-3.7s3-8.1,3.6-8.7s2.3-1.1,3.5-1.2
			c-0.2-1.7,6.6-21.7-0.8-24.9c-0.3-2.2,0.3-3-3.8-7.3c-15.4-15.9-52.3-2.3-68.7-12.4c-1,33.3,29.6,23.7,49.6,23.2
			c9.6-0.3,11.6,2.8,13,7.9c2.5,7.6-0.4,18.9-2.2,23.5C662.7,379,663,380.6,664.1,381.3z"/>
		<g>
			<path id="path33-1-4-2_10_" class="st8" d="M618.5,369.6c-2.4-0.2-4.1-2.4-3.9-4.8c0.2-2.4,2.4-4.2,4.7-4
				c2.4,0.2,4.1,2.4,3.9,4.8C623,368,620.9,369.8,618.5,369.6z"/>
			<path id="path33-0-2_10_" d="M618.5,368.7c-2.2-0.2-3.8-2.1-3.6-4.3c0.2-2.1,2.2-3.7,4.3-3.5s3.8,2.1,3.6,4.3
				S620.7,369,618.5,368.7z"/>
			<path id="path6193-9-1_10_" class="st9" d="M615.6,364.6c-0.2,1.6,1,3,2.7,3.2c1.6,0.2,3.1-1,3.2-2.6c0.2-1.6-1-3-2.7-3.2
				C617.2,361.8,615.8,363,615.6,364.6z"/>
			<path id="path49-4-6_10_" class="st10" d="M617.8,365c-0.6-0.1-1.1-0.7-1-1.3c0.1-0.7,0.6-1.2,1.3-1.1c0.6,0.1,1.1,0.7,1,1.3
				C619,364.6,618.4,365.1,617.8,365z"/>
		</g>
		<path class="st11" d="M667,347.3c-1.1-1-5.5-2.2-14.7,2.7c-8.8,4.7-22.3,1.4-21.6,1.6s6.3-2.7,5.6-2.4c-0.7,0.2-9.6,3.5-18.1,1.3
			c-14.5-3.7-16.5-16.4-16.5-16.4s3.6,3.6,13.8,3.3s16.6-3.9,31.1-1.3C661,338.8,667,347.3,667,347.3z"/>
		<path id="path511_1_" class="st4" d="M638.7,421.4l-19.9,2l-13.1-13.7c-19.3,1.4,3.9,28.1,7.9,28.6c7.3-0.7,26.4-5.1,26.4-5.2
			L638.7,421.4z"/>
		<path id="path3482_1_" class="st6" d="M606.8,411c0,0,7.4,7.8,9.8,10.8c-0.1,3.8,3,6.1,6.4,7.8c3.3,1.7,7.1,1.2,8,1.5
			c1,0.3,6.7,2.8,6.7,2.8l8.7-3.3l-12.4-6.1c0,0-10.5,0.9-11.6,0.5C621.3,424.6,606.8,411,606.8,411L606.8,411z"/>
		
			<linearGradient id="path515_2_" gradientUnits="userSpaceOnUse" x1="618.3508" y1="1349.1414" x2="638.7139" y2="1349.1414" gradientTransform="matrix(1 0 0 1 0 -926)">
			<stop  offset="0" style="stop-color:#FFDABC"/>
			<stop  offset="0.2713" style="stop-color:#FED7B8"/>
			<stop  offset="0.5177" style="stop-color:#FACFAD"/>
			<stop  offset="0.7544" style="stop-color:#F3C19B"/>
			<stop  offset="0.9839" style="stop-color:#EAAE81"/>
			<stop  offset="1" style="stop-color:#E9AC7F"/>
		</linearGradient>
		<path id="path515_1_" class="st13" d="M615.9,419.3c0,0-0.3,1.4,1.2,3.4c0.3,0.4,0.7,0.7,1.1,1c0,0,6.4,6.1,9.8,5.6
			c4.3-0.6,7.8,3,8.6,2.1c0.8-0.8,2.5-10.9,1.9-11c-2.6-1.2-4.9-2.4-7-5.2c-0.8-0.5-3.6-1.1-4.4,1.2
			C627.1,416.5,619.9,411.6,615.9,419.3z"/>
		<path id="path511-1_1_" class="st6" d="M598.4,413.9c-2.7,7.9,12,24.1,15.1,24.5c7.3-0.7,26.4-5.1,26.4-5.2l-0.2-1.5
			c-6.1,1.3-22.7,4.7-24.8,4.7c-2.6,0-12.5-9.5-14.3-14.9C599.7,418.6,598.9,415.9,598.4,413.9L598.4,413.9z"/>
		<path id="path513_1_" class="st4" d="M635.9,419.3l19.2,4.3l14.2-15.4c18.4,1.9-5.6,30.7-7.7,30.5c-7.3-0.7-30.2-7.7-30.2-7.8
			L635.9,419.3z"/>
		<path id="path513-4_1_" class="st6" d="M675.8,417.2c-3,5.1-8,13.6-10.1,16.1c-3.1,3.5-3,4.6-5.2,3.7c-2.1-0.9-28.6-7.2-28.8-7.3
			l-0.5,1.2c0,0.1,22.9,7.1,30.2,7.8C662.9,438.9,673.9,426.3,675.8,417.2L675.8,417.2z"/>
		<path id="path4301_1_" class="st6" d="M666.7,412.2c-0.4,0.2-6.4,7.3-6.4,7.3s1.2,3.1,0.2,5.5s-2.8,3.6-5,2.6s-8.3-5-8.3-5
			l-11.8-2.2l0.5-1.3c0,0,13.8,3,14.4,3c0.5,0,6.1-1.2,6.2-1.6c0.2-0.4,2.9-2.3,2.9-2.3l8.4-7.4L666.7,412.2z"/>
		
			<linearGradient id="path517_2_" gradientUnits="userSpaceOnUse" x1="664.2956" y1="1355.9883" x2="645.7948" y2="1341.8918" gradientTransform="matrix(1 0 0 1 0 -926)">
			<stop  offset="0" style="stop-color:#FFDABC"/>
			<stop  offset="0.2713" style="stop-color:#FED7B8"/>
			<stop  offset="0.5177" style="stop-color:#FACFAD"/>
			<stop  offset="0.7544" style="stop-color:#F3C19B"/>
			<stop  offset="0.9839" style="stop-color:#EAAE81"/>
			<stop  offset="1" style="stop-color:#E9AC7F"/>
		</linearGradient>
		<path id="path517_1_" class="st14" d="M655.8,416c-0.6,0-3.6,0.6-4.3,0.8c-1.9-0.3-3.8,0-5.4,1c-3.8,2.4-2.2,4-0.6,4.2
			c1.1,0.2,2.7,1,4.4,2l2.2,4.5c1.5,3.2,3.5,2.2,3.2,1.4c-0.9-2.7-2.6-6.1-2.7-6.6c0,0,4.1,7.8,5.6,6.8c0,0,1.1-1.3-3.2-7.7
			c0.4,0.3,3.2,3.6,5.4,6.2c1,1.2,3,0,1.9-1.6c-1.1-1.5-4.8-5.8-5-6.2c0.2,0.3,3.6,2.6,5.9,4.5c0.9,0.7,2.1-0.7,1.5-1.7
			c-0.1-0.3-5.3-5.4-5.3-5.4C658.5,417.2,658.2,416,655.8,416z"/>
		<path id="path5421_1_" class="st6" d="M645.2,422c0,0-0.2-1.1,0.9-3.4c1.1-2.3,5.6-1.8,5.6-1.8l-1.5-1.3c0,0-2-0.6-4.5,1.2
			c-2.6,1.8-2.6,4.6-2.6,4.6L645.2,422z"/>
		<path id="path5423_1_" class="st6" d="M635.4,417.9c-0.1,0.3-4.3,12.6-4.3,12.6l2.9,1l1.5,0.4c0,0,4.1-12.9,4-12.9
			C639.4,419,635.4,417.9,635.4,417.9L635.4,417.9z"/>
		<path class="st15" d="M647.3,417.1c-1.8,1.1-2.1,3-2.2,3.6c-0.1,0.4-0.1,1-0.1,1.3l0.2,0.1c0,0-0.2-1.1,0.9-3.4
			c1.1-2.3,5.6-1.8,5.6-1.8l-0.4-0.3C650.4,416.5,648.2,416.5,647.3,417.1z"/>
		
			<linearGradient id="path509_2_" gradientUnits="userSpaceOnUse" x1="233.0941" y1="1418.5597" x2="248.3695" y2="1418.5597" gradientTransform="matrix(1.1286 0.1084 -7.150000e-02 0.7448 461.929 -693.8196)">
			<stop  offset="0" style="stop-color:#4C0807"/>
			<stop  offset="1" style="stop-color:#220606"/>
		</linearGradient>
		<path id="path509_1_" class="st16" d="M640.5,393.1c-3.6-5.5-12.7-10.9-17.1-3.5C624.2,381.2,639.9,385.8,640.5,393.1z"/>
		<path id="polygon37-1_20_" class="st11" d="M623.5,363.1c-5.6-2-10.8-3-14.6-2.2c-2,0-1.9-3.3,0.6-3.5c4.6-0.5,9.6,0.4,14.4,2.4
			C626.4,360.8,626.2,364.1,623.5,363.1z"/>
	</g>
</g>
</svg>
